<svg xmlns="http://www.w3.org/2000/svg" xmlns:xlink="http://www.w3.org/1999/xlink" viewBox="0 0 375 667">
  <defs>
    <style>
      .cls-1 {
        clip-path: url(#clip-iPhone_6_7_8_1);
      }

      .cls-13, .cls-2, .cls-3, .cls-4 {
        fill: #fff;
      }

      .cls-2, .cls-3, .cls-5 {
        font-size: 15px;
      }

      .cls-2, .cls-3, .cls-39, .cls-5, .cls-8 {
        font-family: SegoeUI-Semibold, Segoe UI;
        font-weight: 600;
      }

      .cls-2 {
        text-decoration: underline;
      }

      .cls-5, .cls-6 {
        fill: #1072f9;
      }

      .cls-6 {
        stroke: #fff;
      }

      .cls-7 {
        fill: #4d97fd;
      }

      .cls-8 {
        fill: #7d8594;
        font-size: 17px;
      }

      .cls-12, .cls-19, .cls-9 {
        fill: #6c63ff;
      }

      .cls-15, .cls-9 {
        opacity: 0.1;
      }

      .cls-10, .cls-13, .cls-18, .cls-19 {
        opacity: 0.5;
      }

      .cls-11, .cls-41 {
        fill: none;
      }

      .cls-11 {
        stroke: #535461;
        stroke-miterlimit: 10;
        stroke-width: 2px;
      }

      .cls-14 {
        fill: #474059;
      }

      .cls-16 {
        fill: url(#linear-gradient);
      }

      .cls-17, .cls-18 {
        fill: #c0bccf;
      }

      .cls-20 {
        fill: url(#linear-gradient-2);
      }

      .cls-21 {
        fill: #493545;
      }

      .cls-22 {
        fill: #c77485;
      }

      .cls-23 {
        fill: #444176;
      }

      .cls-24 {
        fill: url(#linear-gradient-3);
      }

      .cls-25 {
        fill: #f1d2d7;
      }

      .cls-26 {
        fill: url(#linear-gradient-4);
      }

      .cls-27 {
        fill: #53526b;
      }

      .cls-28 {
        opacity: 0.05;
      }

      .cls-29 {
        fill: #5f5d7e;
      }

      .cls-30 {
        opacity: 0.02;
      }

      .cls-31 {
        fill: #e82127;
      }

      .cls-32 {
        fill: #d6dbe6;
      }

      .cls-33 {
        fill: #fdc2cc;
      }

      .cls-34 {
        fill: #865a61;
      }

      .cls-35 {
        fill: url(#linear-gradient-5);
      }

      .cls-36 {
        fill: url(#linear-gradient-6);
      }

      .cls-37 {
        fill: #555388;
      }

      .cls-38 {
        fill: #1d233f;
        font-family: SegoeUI-Bold, Segoe UI;
        font-weight: 700;
      }

      .cls-38, .cls-39 {
        font-size: 20px;
      }

      .cls-39 {
        fill: #707070;
        opacity: 0.79;
      }

      .cls-40 {
        stroke: none;
      }

      .cls-42 {
        fill: #006bfd;
      }

      .cls-43 {
        filter: url(#Rectangle_1);
      }

      .cls-44 {
        filter: url(#Rectangle_2);
      }

      .cls-45 {
        filter: url(#Square);
      }
    </style>
    <filter id="Square" x="-24.5" y="-117.18" width="423" height="588.36" filterUnits="userSpaceOnUse">
      <feOffset dy="10" input="SourceAlpha"/>
      <feGaussianBlur stdDeviation="7.5" result="blur"/>
      <feFlood flood-color="#363636" flood-opacity="0.161"/>
      <feComposite operator="in" in2="blur"/>
      <feComposite in="SourceGraphic"/>
    </filter>
    <filter id="Rectangle_2" x="220" y="516" width="114" height="57" filterUnits="userSpaceOnUse">
      <feOffset dy="1" input="SourceAlpha"/>
      <feGaussianBlur stdDeviation="3" result="blur-2"/>
      <feFlood flood-opacity="0.161"/>
      <feComposite operator="in" in2="blur-2"/>
      <feComposite in="SourceGraphic"/>
    </filter>
    <filter id="Rectangle_1" x="39" y="516" width="114" height="57" filterUnits="userSpaceOnUse">
      <feOffset dy="1" input="SourceAlpha"/>
      <feGaussianBlur stdDeviation="3" result="blur-3"/>
      <feFlood flood-opacity="0.161"/>
      <feComposite operator="in" in2="blur-3"/>
      <feComposite in="SourceGraphic"/>
    </filter>
    <linearGradient id="linear-gradient" x1="0.5" y1="1" x2="0.5" gradientUnits="objectBoundingBox">
      <stop offset="0" stop-color="gray" stop-opacity="0.251"/>
      <stop offset="0.54" stop-color="gray" stop-opacity="0.122"/>
      <stop offset="1" stop-color="gray" stop-opacity="0.102"/>
    </linearGradient>
    <linearGradient id="linear-gradient-2" y1="1" y2="0" xlink:href="#linear-gradient"/>
    <linearGradient id="linear-gradient-3" x1="0" y1="0.5" x2="1" y2="0.5" xlink:href="#linear-gradient"/>
    <linearGradient id="linear-gradient-4" x1="2.581" y1="1" x2="2.581" y2="0" xlink:href="#linear-gradient"/>
    <linearGradient id="linear-gradient-5" y1="1" y2="0" xlink:href="#linear-gradient"/>
    <linearGradient id="linear-gradient-6" x1="-25.357" y1="1.001" x2="-25.357" y2="0" xlink:href="#linear-gradient"/>
    <clipPath id="clip-iPhone_6_7_8_1">
      <rect width="375" height="667"/>
    </clipPath>
  </defs>
  <g id="iPhone_6_7_8_1" data-name="iPhone 6/7/8 – 1" class="cls-1">
    <rect class="cls-42" width="375" height="667"/>
    <g id="Daftar" transform="translate(20 11)">
      <text id="Click_Here" data-name="Click Here" class="cls-2" transform="translate(228 602)"><tspan x="0" y="0">Click Here</tspan></text>
      <text id="Anda_Adalah_Tukang_Urut_" data-name="Anda Adalah Tukang Urut ?" class="cls-3" transform="translate(37 602)"><tspan x="0" y="0">Anda Adalah Tukang Urut ?</tspan></text>
    </g>
    <g class="cls-45" transform="matrix(1, 0, 0, 1, 0, 0)">
      <path id="Square-2" data-name="Square" class="cls-4" d="M48.016,0H329.984C356.5,0,378,20.2,378,45.12V498.24c0,24.919-21.5,45.12-48.016,45.12H48.016C21.5,543.36,0,523.159,0,498.24V45.12C0,20.2,21.5,0,48.016,0Z" transform="translate(-2 -104.68)"/>
    </g>
    <g id="Regist_Season" data-name="Regist Season" transform="translate(7 8)">
      <g class="cls-44" transform="matrix(1, 0, 0, 1, -7, -8)">
        <rect id="Rectangle_2-2" data-name="Rectangle 2" class="cls-4" width="96" height="39" rx="8" transform="translate(229 524)"/>
      </g>
      <text id="Sign_Up" data-name="Sign Up" class="cls-5" transform="translate(243 541)"><tspan x="0" y="0">Sign Up</tspan></text>
      <g class="cls-43" transform="matrix(1, 0, 0, 1, -7, -8)">
        <g id="Rectangle_1-2" data-name="Rectangle 1" class="cls-6" transform="translate(48 524)">
          <rect class="cls-40" width="96" height="39" rx="8"/>
          <rect class="cls-41" x="0.5" y="0.5" width="95" height="38" rx="7.5"/>
        </g>
      </g>
      <text id="Log_In" data-name="Log In" class="cls-3" transform="translate(68 541)"><tspan x="0" y="0">Log In</tspan></text>
    </g>
    <g id="Indicator" transform="translate(55 -2)">
      <circle id="Ellipse_3" data-name="Ellipse 3" class="cls-7" cx="6" cy="6" r="6" transform="translate(147.5 477)"/>
      <circle id="Ellipse_2" data-name="Ellipse 2" class="cls-7" cx="6" cy="6" r="6" transform="translate(125.75 477)"/>
      <circle id="Ellipse_1" data-name="Ellipse 1" class="cls-4" cx="6" cy="6" r="6" transform="translate(104 477)"/>
    </g>
    <text id="Lorem_Ipsum_is_simply_dummy_text_of_the_printing_and_typesetting_industry" data-name="Lorem Ipsum is simply dummy text of the printing and typesetting industry" class="cls-8" transform="translate(28 354)"><tspan x="13.728" y="18">Lorem Ipsum is simply dummy text of </tspan><tspan x="16.322" y="40">the printing and typesetting industry</tspan></text>
    <g id="undraw_people_search_wctu" transform="translate(63 98.541)">
      <path id="Path_1" data-name="Path 1" class="cls-9" d="M276.972,126.166c-8.741,11.994-5.857,29.115-.8,42.755,1.692,4.566,3.615,9.4,2.737,14.363-1.072,6.073-6.109,10.624-11.345,13.1a30.062,30.062,0,0,1-29.359-1.9c-7.368-4.912-12.555-13.075-20.066-17.753-12.571-7.826-28.89-4.329-42.88,1.646-9.9,4.227-20.74,9.67-30.386,5.767-6.788-2.746-11.358-9.737-13.763-17.21-1.161-3.608-1.974-7.524-4.287-10.349a15.826,15.826,0,0,0-5.062-3.827c-17.056-8.931-39-3.349-55.531-13.314-11.164-6.73-18.112-19.789-21-33.518S43.055,77.71,44.2,63.465c.817-10.123,2.11-20.941,8.2-28.9,6.437-8.411,17.226-11.753,26.874-10.436s18.3,6.676,25.864,13.073c9.465,7.98,18.173,18,29.944,21.028,8.018,2.063,16.536.6,24.871-.042,13.933-1.076,27.816.163,41.615,1.563,13.209,1.34,26.51,2.836,39.02,7.227,8.853,3.108,15.871,8.982,24.206,13,5.432,2.617,11.409,3.224,16.523,6.6,6.31,4.164,12.012,11.541,10.161,20.394C289.73,115.393,281.616,119.8,276.972,126.166Z" transform="translate(-43.2 -23.86)"/>
      <g id="Group_1" data-name="Group 1" class="cls-10" transform="translate(176.338 79.885)">
        <path id="Path_2" data-name="Path 2" class="cls-11" d="M898.19,507.249s.737-21.828,12.546-34.161a33.087,33.087,0,0,0,9.074-18.862,55.66,55.66,0,0,0,.277-10.175" transform="translate(-883.628 -430.121)"/>
        <path id="Path_3" data-name="Path 3" class="cls-7" d="M998.035,387.782c-.808,2.438-7.565,8.038-7.565,8.038s-2.07-8.531-1.261-10.967a4.649,4.649,0,1,1,8.826,2.927Z" transform="translate(-954.179 -381.666)"/>
        <path id="Path_4" data-name="Path 4" class="cls-7" d="M1004.717,451.158C1002.708,452.766,994,453.8,994,453.8s2.9-8.286,4.912-9.891a4.649,4.649,0,1,1,5.805,7.252Z" transform="translate(-958.046 -429.122)"/>
        <path id="Path_5" data-name="Path 5" class="cls-7" d="M969.5,551.054c-2.541.375-10.586-3.126-10.586-3.126s6.685-5.689,9.226-6.064a4.649,4.649,0,0,1,1.36,9.2Z" transform="translate(-930.79 -506.056)"/>
        <path id="Path_6" data-name="Path 6" class="cls-7" d="M923.653,623.393c-2.44.8-10.963-1.3-10.963-1.3s5.629-6.736,8.069-7.536a4.65,4.65,0,0,1,2.9,8.835Z" transform="translate(-894.89 -562.377)"/>
        <path id="Path_7" data-name="Path 7" class="cls-7" d="M949.992,456.883c1.186,2.277,8.755,6.736,8.755,6.736s.688-8.75-.5-11.03A4.649,4.649,0,0,0,950,456.881Z" transform="translate(-923.462 -434.809)"/>
        <path id="Path_8" data-name="Path 8" class="cls-7" d="M896.065,537.486c1.813,1.82,10.36,3.811,10.36,3.811s-1.963-8.556-3.773-10.376a4.649,4.649,0,1,0-6.587,6.562Z" transform="translate(-880.924 -496.534)"/>
        <path id="Path_9" data-name="Path 9" class="cls-12" d="M859.236,628.15c1.478,2.1,9.567,5.508,9.567,5.508s-.487-8.764-1.967-10.865a4.649,4.649,0,1,0-7.591,5.359Z" transform="translate(-852.647 -567.328)"/>
        <path id="Path_10" data-name="Path 10" class="cls-11" d="M872.263,566.4s-6.7-9.744-5.524-18.912a17.916,17.916,0,0,0-2.117-11.133,30.144,30.144,0,0,0-3.153-4.519" transform="translate(-855.107 -498.309)"/>
        <path id="Path_11" data-name="Path 11" class="cls-12" d="M847.56,499.909c.431,1.322-.708,5.935-.708,5.935s-3.646-3.05-4.077-4.37a2.517,2.517,0,1,1,4.785-1.563Z" transform="translate(-840.489 -472.161)"/>
        <path id="Path_12" data-name="Path 12" class="cls-12" d="M875.937,521.929c-.355,1.34-3.82,4.6-3.82,4.6s-1.4-4.542-1.047-5.886a2.518,2.518,0,0,1,4.867,1.288Z" transform="translate(-862.518 -488.155)"/>
        <path id="Path_13" data-name="Path 13" class="cls-12" d="M891.068,574.232c-.985.98-5.618,2.041-5.618,2.041s1.081-4.628,2.068-5.609a2.518,2.518,0,1,1,3.55,3.572Z" transform="translate(-873.732 -527.896)"/>
        <path id="Path_14" data-name="Path 14" class="cls-12" d="M896.2,620.915c-.806,1.132-5.2,2.956-5.2,2.956s.284-4.745,1.09-5.877a2.517,2.517,0,0,1,4.1,2.916Z" transform="translate(-878.043 -564.405)"/>
        <path id="Path_15" data-name="Path 15" class="cls-12" d="M848.929,545.38c1.248.612,5.975.121,5.975.121s-2.516-4.032-3.764-4.642a2.516,2.516,0,1,0-2.21,4.521Z" transform="translate(-844.269 -505.115)"/>
        <path id="Path_16" data-name="Path 16" class="cls-12" d="M851.389,597.867c1.375.21,5.738-1.672,5.738-1.672s-3.608-3.095-4.981-3.3a2.517,2.517,0,1,0-.757,4.977Z" transform="translate(-845.615 -545.713)"/>
        <path id="Path_17" data-name="Path 17" class="cls-12" d="M864.771,649.28c1.32.447,5.939-.67,5.939-.67s-3.032-3.66-4.352-4.1a2.518,2.518,0,0,0-1.588,4.778Z" transform="translate(-856.331 -585.723)"/>
        <path id="Path_18" data-name="Path 18" class="cls-13" d="M847.56,499.909c.431,1.322-.708,5.935-.708,5.935s-3.646-3.05-4.077-4.37a2.517,2.517,0,1,1,4.785-1.563Z" transform="translate(-840.489 -472.161)"/>
        <path id="Path_19" data-name="Path 19" class="cls-13" d="M875.937,521.929c-.355,1.34-3.82,4.6-3.82,4.6s-1.4-4.542-1.047-5.886a2.518,2.518,0,0,1,4.867,1.288Z" transform="translate(-862.518 -488.155)"/>
        <path id="Path_20" data-name="Path 20" class="cls-13" d="M891.068,574.232c-.985.98-5.618,2.041-5.618,2.041s1.081-4.628,2.068-5.609a2.518,2.518,0,1,1,3.55,3.572Z" transform="translate(-873.732 -527.896)"/>
        <path id="Path_21" data-name="Path 21" class="cls-13" d="M896.2,620.915c-.806,1.132-5.2,2.956-5.2,2.956s.284-4.745,1.09-5.877a2.517,2.517,0,0,1,4.1,2.916Z" transform="translate(-878.043 -564.405)"/>
        <path id="Path_22" data-name="Path 22" class="cls-13" d="M848.929,545.38c1.248.612,5.975.121,5.975.121s-2.516-4.032-3.764-4.642a2.516,2.516,0,1,0-2.21,4.521Z" transform="translate(-844.269 -505.115)"/>
        <path id="Path_23" data-name="Path 23" class="cls-13" d="M851.389,597.867c1.375.21,5.738-1.672,5.738-1.672s-3.608-3.095-4.981-3.3a2.517,2.517,0,1,0-.757,4.977Z" transform="translate(-845.615 -545.713)"/>
        <path id="Path_24" data-name="Path 24" class="cls-13" d="M864.771,649.28c1.32.447,5.939-.67,5.939-.67s-3.032-3.66-4.352-4.1a2.518,2.518,0,0,0-1.588,4.778Z" transform="translate(-856.331 -585.723)"/>
        <path id="Path_25" data-name="Path 25" class="cls-14" d="M794.533,680.035h19.052l4.765-29.055H789.77Z" transform="translate(-789.77 -585.521)"/>
        <path id="Path_26" data-name="Path 26" class="cls-15" d="M793.416,650.98l4.45,27.151H813.9l-.313,1.9H794.533L789.77,650.98Z" transform="translate(-789.77 -585.521)"/>
      </g>
      <rect id="Rectangle_3" data-name="Rectangle 3" class="cls-16" width="139.772" height="168.642" transform="translate(44.941 8.768)"/>
      <rect id="Rectangle_4" data-name="Rectangle 4" class="cls-4" width="136.199" height="164.332" transform="translate(46.728 10.925)"/>
      <rect id="Rectangle_5" data-name="Rectangle 5" class="cls-17" width="54.926" height="2.679" transform="translate(99.644 29.457)"/>
      <rect id="Rectangle_6" data-name="Rectangle 6" class="cls-17" width="54.926" height="2.679" transform="translate(99.644 37.941)"/>
      <rect id="Rectangle_7" data-name="Rectangle 7" class="cls-7" width="28.58" height="2.679" transform="translate(112.818 46.426)"/>
      <rect id="Rectangle_8" data-name="Rectangle 8" class="cls-18" width="54.926" height="2.679" transform="translate(99.644 83.267)"/>
      <rect id="Rectangle_9" data-name="Rectangle 9" class="cls-18" width="54.926" height="2.679" transform="translate(99.644 91.751)"/>
      <rect id="Rectangle_10" data-name="Rectangle 10" class="cls-19" width="28.58" height="2.679" transform="translate(112.818 100.236)"/>
      <rect id="Rectangle_11" data-name="Rectangle 11" class="cls-18" width="54.926" height="2.679" transform="translate(99.644 137.077)"/>
      <rect id="Rectangle_12" data-name="Rectangle 12" class="cls-18" width="54.926" height="2.679" transform="translate(99.644 145.561)"/>
      <rect id="Rectangle_13" data-name="Rectangle 13" class="cls-19" width="28.58" height="2.679" transform="translate(112.818 154.046)"/>
      <g id="Group_2" data-name="Group 2" class="cls-10" transform="translate(54.096 77.905)">
        <path id="Path_27" data-name="Path 27" class="cls-17" d="M315.846,387.981a15.112,15.112,0,0,1-3.655,9.88c-.116.136-.237.27-.359.4q-.092.1-.188.2a14.9,14.9,0,0,1-1.621,1.471l-.04.029a15.115,15.115,0,0,1-4.5,2.416l-.2.065c-.125.042-.255.08-.382.116l-.051.016a15.255,15.255,0,0,1-8.384,0h-.022c-.223-.065-.447-.132-.652-.205l-.19-.067a14.723,14.723,0,0,1-2.1-.929l-.042-.022a15.237,15.237,0,0,1-2.974-2.106l-.074-.069a14.19,14.19,0,0,1-1.3-1.34c-.054-.06-.1-.123-.156-.185-.1-.116-.192-.237-.286-.357a15.183,15.183,0,1,1,27.173-9.315Z" transform="translate(-285.48 -372.798)"/>
        <path id="Path_28" data-name="Path 28" class="cls-20" d="M322.8,404.739l-1.152-.518a4.582,4.582,0,0,0,.022-.527,4.145,4.145,0,0,0,0-.447,10.069,10.069,0,0,0-1.391-3.271,9.291,9.291,0,0,1-.909-3.126,15.11,15.11,0,0,0-.491-3.988,7.2,7.2,0,0,0-2.036-2.615,10.335,10.335,0,0,0-3.271-2.074,5.784,5.784,0,0,0-3.9-.1,8.407,8.407,0,0,0-2.807,2.027,9.434,9.434,0,0,0-1.585,1.8,7.8,7.8,0,0,0-.893,2.728,41.742,41.742,0,0,0-.549,4.559c-.087,1.275-.223,2.722-1.313,3.5-.531.382-1.279.6-1.523,1.174a1.2,1.2,0,0,0-.08.547,2.011,2.011,0,0,0,.034.462c.016.089.033.176.056.266a19.589,19.589,0,0,0-.786,2.385c-.163.6-.313,1.195-.447,1.768h.554l2.081.049h.029l2.233.051h.011l2.081.049h.051l.6.042h.2l8.322.192h.045l.554.013h.194l1.666.038h0l2.456.056h.018l1.849.045h.576l-.1-1.938C323.6,404.924,322.8,404.739,322.8,404.739Zm-9.349-.237c0,1.643-1.759,3.655-1.759,3.655l-1.771-2.411.065-.094,1.706,2.322s1.759-2.009,1.759-3.655a1.923,1.923,0,0,1,.141-.241l.04.125A2.367,2.367,0,0,0,313.449,404.5Zm2.706,6.448a1.348,1.348,0,0,0-.016-.25c-.016-.083-.013-.156-.025-.237s-.02-.159-.031-.239-.027-.159-.042-.239-.031-.159-.049-.239a.374.374,0,0,0-.018-.08q-.037-.157-.08-.315c-.029-.1-.047-.17-.074-.252a.343.343,0,0,0-.036-.112c-.013-.036-.038-.121-.058-.181l-.04-.116c-.018-.051-.036-.1-.056-.156-.033-.094-.069-.185-.1-.279s-.074-.185-.112-.277c-.076-.188-.159-.373-.241-.56-.324-.723-.688-1.436-1.023-2.141a11.392,11.392,0,0,1-.478-1.134l-.042.056a2.369,2.369,0,0,0-.181.3c0,1.643-1.759,3.655-1.759,3.655l-1.771-2.411-1.55,2.233a1.807,1.807,0,0,0-.621,1.032c-.049.145-.1.306-.141.473-.031.114-.06.223-.087.351-.016.06-.029.121-.042.183l-.04.19v.029c-.027.129-.054.263-.078.4s-.054.292-.078.447q-.027.145-.047.288c-.031.185-.058.373-.085.56-.016.109-.031.223-.045.324l-.054.415c.114.342.241.67.373,1.014a1.594,1.594,0,0,1,.145.574,16.272,16.272,0,0,0,8.384,0,.079.079,0,0,1,0-.02,2.331,2.331,0,0,1-.054-.569h0a14.715,14.715,0,0,1,.223-1.6,5.465,5.465,0,0,0,.042-.786v-.094c-.007-.085-.009-.161-.011-.234Zm0,0a1.348,1.348,0,0,0-.016-.25c-.016-.083-.013-.156-.025-.237s-.02-.159-.031-.239-.027-.159-.042-.239-.031-.159-.049-.239a.374.374,0,0,0-.018-.08q-.037-.157-.08-.315c-.029-.1-.047-.17-.074-.252a.343.343,0,0,0-.036-.112c-.013-.036-.038-.121-.058-.181l-.04-.116c-.018-.051-.036-.1-.056-.156-.033-.094-.069-.185-.1-.279s-.074-.185-.112-.277c-.076-.188-.159-.373-.241-.56-.324-.723-.688-1.436-1.023-2.141a11.392,11.392,0,0,1-.478-1.134l-.042.056a2.369,2.369,0,0,0-.181.3c0,1.643-1.759,3.655-1.759,3.655l-1.771-2.411-1.55,2.233a1.807,1.807,0,0,0-.621,1.032c-.049.145-.1.306-.141.473-.031.114-.06.223-.087.351-.016.06-.029.121-.042.183l-.04.19v.029c-.027.129-.054.263-.078.4s-.054.292-.078.447q-.027.145-.047.288c-.031.185-.058.373-.085.56-.016.109-.031.223-.045.324l-.054.415c.114.342.241.67.373,1.014a1.594,1.594,0,0,1,.145.574,16.272,16.272,0,0,0,8.384,0,.079.079,0,0,1,0-.02,2.331,2.331,0,0,1-.054-.569h0a14.715,14.715,0,0,1,.223-1.6,5.465,5.465,0,0,0,.042-.786v-.094c-.007-.085-.009-.161-.011-.234Zm0,0a1.348,1.348,0,0,0-.016-.25c-.016-.083-.013-.156-.025-.237s-.02-.159-.031-.239-.027-.159-.042-.239-.031-.159-.049-.239a.374.374,0,0,0-.018-.08q-.037-.157-.08-.315c-.029-.1-.047-.17-.074-.252a.343.343,0,0,0-.036-.112c-.013-.036-.038-.121-.058-.181l-.04-.116c-.018-.051-.036-.1-.056-.156-.033-.094-.069-.185-.1-.279s-.074-.185-.112-.277c-.076-.188-.159-.373-.241-.56-.324-.723-.688-1.436-1.023-2.141a11.392,11.392,0,0,1-.478-1.134l-.042.056a2.369,2.369,0,0,0-.181.3c0,1.643-1.759,3.655-1.759,3.655l-1.771-2.411-1.55,2.233a1.807,1.807,0,0,0-.621,1.032c-.049.145-.1.306-.141.473-.031.114-.06.223-.087.351-.016.06-.029.121-.042.183l-.04.19v.029c-.027.129-.054.263-.078.4s-.054.292-.078.447q-.027.145-.047.288c-.031.185-.058.373-.085.56-.016.109-.031.223-.045.324l-.054.415c.114.342.241.67.373,1.014a1.594,1.594,0,0,1,.145.574,16.272,16.272,0,0,0,8.384,0,.079.079,0,0,1,0-.02,2.331,2.331,0,0,1-.054-.569h0a14.715,14.715,0,0,1,.223-1.6,5.465,5.465,0,0,0,.042-.786v-.094c-.007-.085-.009-.161-.011-.234Zm0,0a1.348,1.348,0,0,0-.016-.25c-.016-.083-.013-.156-.025-.237s-.02-.159-.031-.239-.027-.159-.042-.239-.031-.159-.049-.239a.374.374,0,0,0-.018-.08q-.037-.157-.08-.315c-.029-.1-.047-.17-.074-.252a.343.343,0,0,0-.036-.112c-.013-.036-.038-.121-.058-.181l-.04-.116c-.018-.051-.036-.1-.056-.156-.033-.094-.069-.185-.1-.279s-.074-.185-.112-.277c-.076-.188-.159-.373-.241-.56-.324-.723-.688-1.436-1.023-2.141a11.392,11.392,0,0,1-.478-1.134l-.042.056a2.369,2.369,0,0,0-.181.3c0,1.643-1.759,3.655-1.759,3.655l-1.771-2.411-1.55,2.233a1.807,1.807,0,0,0-.621,1.032c-.049.145-.1.306-.141.473-.031.114-.06.223-.087.351-.016.06-.029.121-.042.183l-.04.19v.029c-.027.129-.054.263-.078.4s-.054.292-.078.447q-.027.145-.047.288c-.031.185-.058.373-.085.56-.016.109-.031.223-.045.324l-.054.415c.114.342.241.67.373,1.014a1.594,1.594,0,0,1,.145.574,16.272,16.272,0,0,0,8.384,0,.079.079,0,0,1,0-.02,2.331,2.331,0,0,1-.054-.569h0a14.715,14.715,0,0,1,.223-1.6,5.465,5.465,0,0,0,.042-.786v-.094c-.007-.085-.009-.161-.011-.234Z" transform="translate(-296.587 -384.433)"/>
        <rect id="Rectangle_14" data-name="Rectangle 14" class="cls-21" width="10.271" height="6.922" transform="translate(9.378 10.943)"/>
        <path id="Path_29" data-name="Path 29" class="cls-22" d="M339.072,433.584l-4.3,6.055-4.492-.391s-5.861.388-1.954-4.1a9.638,9.638,0,0,0,2.623-5.243,4.06,4.06,0,0,0-.279-2.179l4.883-.585a3.644,3.644,0,0,0-.08,2.038C336.086,431.715,339.072,433.584,339.072,433.584Z" transform="translate(-317.717 -415.007)"/>
        <path id="Path_30" data-name="Path 30" class="cls-15" d="M348.293,429.156a4.881,4.881,0,0,1-4.524.728,4.06,4.06,0,0,0-.279-2.179l4.883-.585a3.644,3.644,0,0,0-.08,2.036Z" transform="translate(-330.538 -414.991)"/>
        <circle id="Ellipse_4" data-name="Ellipse 4" class="cls-22" cx="4.883" cy="4.883" r="4.883" transform="translate(9.927 5.194)"/>
        <path id="Path_31" data-name="Path 31" class="cls-15" d="M334.416,450.594l-.114-.447-.1-.393-.145-.581-.027-.107-.022-.089s.116-.351-.65-.237l-.143.025c-.121.025-.261.058-.422.1l-.145.045-.192.06h0a4.186,4.186,0,0,0-1.621.978,3.65,3.65,0,0,0-.543.656c-.016.022-.027.042-.04.06a2.114,2.114,0,0,0-.141.259c0,1.759-1.759,3.907-1.759,3.907l-1.717-2.481-.034-.049-.409-.594-.145-.192-.049-.067-.893-1.2-.223-.3-.074-.1-.109-.145-.257-.342-1,.587-1.34.781-.781,5.08v.141l.025.42.163,2.76v.038l-.286,1.143.042.022a14.723,14.723,0,0,0,2.1.929l.19.067c.223.074.433.141.652.205a.788.788,0,0,1,.018.1c0-.031,0-.065,0-.1a15.257,15.257,0,0,0,8.384,0l.051-.016c.127-.036.257-.074.382-.116l.2-.065a14.958,14.958,0,0,0,1.617-.647l.188-4,.134-2.883v-.165Z" transform="translate(-313.24 -431.767)"/>
        <path id="Path_32" data-name="Path 32" class="cls-4" d="M332.979,458.706a1.543,1.543,0,0,0-.016-.268c-.016-.089-.013-.167-.025-.252s-.02-.17-.031-.255-.027-.17-.042-.255-.031-.17-.049-.255a.383.383,0,0,0-.018-.085c-.025-.112-.051-.223-.08-.337s-.047-.181-.074-.27a.38.38,0,0,0-.036-.118c-.013-.038-.038-.13-.058-.194l-.04-.125c-.018-.056-.036-.112-.056-.168-.033-.1-.069-.2-.1-.3s-.074-.2-.112-.3c-.076-.2-.159-.4-.241-.6-.324-.773-.688-1.534-1.023-2.289a12.654,12.654,0,0,1-.478-1.212l-.042.06a2.571,2.571,0,0,0-.181.322c0,1.757-1.759,3.907-1.759,3.907l-1.771-2.579-1.55,2.382a1.946,1.946,0,0,0-.621,1.1c-.049.156-.1.326-.141.507-.031.121-.06.248-.087.375-.016.065-.029.129-.042.2l-.04.2v.031c-.027.138-.054.281-.078.426s-.054.313-.078.471q-.027.154-.047.308c-.031.2-.058.4-.085.6-.016.116-.031.223-.045.346l-.054.447c.114.366.241.728.373,1.083a1.8,1.8,0,0,1,.145.614,15.256,15.256,0,0,0,8.384,0,.086.086,0,0,1,0-.022,2.659,2.659,0,0,1-.054-.61h0a16.748,16.748,0,0,1,.223-1.708,6.249,6.249,0,0,0,.042-.84v-.1C332.983,458.867,332.981,458.787,332.979,458.706Zm0,0a1.543,1.543,0,0,0-.016-.268c-.016-.089-.013-.167-.025-.252s-.02-.17-.031-.255-.027-.17-.042-.255-.031-.17-.049-.255a.383.383,0,0,0-.018-.085c-.025-.112-.051-.223-.08-.337s-.047-.181-.074-.27a.38.38,0,0,0-.036-.118c-.013-.038-.038-.13-.058-.194l-.04-.125c-.018-.056-.036-.112-.056-.168-.033-.1-.069-.2-.1-.3s-.074-.2-.112-.3c-.076-.2-.159-.4-.241-.6-.324-.773-.688-1.534-1.023-2.289a12.654,12.654,0,0,1-.478-1.212l-.042.06a2.571,2.571,0,0,0-.181.322c0,1.757-1.759,3.907-1.759,3.907l-1.771-2.579-1.55,2.382a1.946,1.946,0,0,0-.621,1.1c-.049.156-.1.326-.141.507-.031.121-.06.248-.087.375-.016.065-.029.129-.042.2l-.04.2v.031c-.027.138-.054.281-.078.426s-.054.313-.078.471q-.027.154-.047.308c-.031.2-.058.4-.085.6-.016.116-.031.223-.045.346l-.054.447c.114.366.241.728.373,1.083a1.8,1.8,0,0,1,.145.614,15.256,15.256,0,0,0,8.384,0,.086.086,0,0,1,0-.022,2.659,2.659,0,0,1-.054-.61h0a16.748,16.748,0,0,1,.223-1.708,6.249,6.249,0,0,0,.042-.84v-.1C332.983,458.867,332.981,458.787,332.979,458.706Zm0,0a1.543,1.543,0,0,0-.016-.268c-.016-.089-.013-.167-.025-.252s-.02-.17-.031-.255-.027-.17-.042-.255-.031-.17-.049-.255a.383.383,0,0,0-.018-.085c-.025-.112-.051-.223-.08-.337s-.047-.181-.074-.27a.38.38,0,0,0-.036-.118c-.013-.038-.038-.13-.058-.194l-.04-.125c-.018-.056-.036-.112-.056-.168-.033-.1-.069-.2-.1-.3s-.074-.2-.112-.3c-.076-.2-.159-.4-.241-.6-.324-.773-.688-1.534-1.023-2.289a12.654,12.654,0,0,1-.478-1.212l-.042.06a2.571,2.571,0,0,0-.181.322c0,1.757-1.759,3.907-1.759,3.907l-1.771-2.579-1.55,2.382a1.946,1.946,0,0,0-.621,1.1c-.049.156-.1.326-.141.507-.031.121-.06.248-.087.375-.016.065-.029.129-.042.2l-.04.2v.031c-.027.138-.054.281-.078.426s-.054.313-.078.471q-.027.154-.047.308c-.031.2-.058.4-.085.6-.016.116-.031.223-.045.346l-.054.447c.114.366.241.728.373,1.083a1.8,1.8,0,0,1,.145.614,15.256,15.256,0,0,0,8.384,0,.086.086,0,0,1,0-.022,2.659,2.659,0,0,1-.054-.61h0a16.748,16.748,0,0,1,.223-1.708,6.249,6.249,0,0,0,.042-.84v-.1C332.983,458.867,332.981,458.787,332.979,458.706Zm2.367-4.191-.8-3.182-.136-.545-.038-.15h0l-.194-.777a.147.147,0,0,0,0-.02h0a.179.179,0,0,0-.016-.1c-.029-.058-.1-.118-.275-.134a1.389,1.389,0,0,0-.2,0h0a3.4,3.4,0,0,0-.574.107c-.092.025-.19.051-.295.085l-.192.06h-.018a4.259,4.259,0,0,0-1.407.781,3.8,3.8,0,0,0-.715.79l-.042.06a2.581,2.581,0,0,0-.181.322c0,1.757-1.759,3.907-1.759,3.907l-1.771-2.579-.1-.145-.018-.025-.257-.377-.194-.259-.051-.067-.915-1.221h0l-.29-.4v-.013l-.1-.136-.192-.255-.67.391-1.675.976-.773,5.026v.054l.022.366.165,2.8v.159l-.252,1.007a14.723,14.723,0,0,0,2.1.929l.19.067c.223.074.433.141.652.205a.79.79,0,0,1,.018.1v-.1a15.256,15.256,0,0,0,8.384,0l.051-.016c.127-.036.257-.074.382-.116l.2-.065a14.964,14.964,0,0,0,1.617-.647l.185-3.992.134-2.851Zm-10.981,7.71a.8.8,0,0,1,.018.1v-.1Zm8.614-3.519a1.543,1.543,0,0,0-.016-.268c-.016-.089-.013-.167-.025-.252s-.02-.17-.031-.255-.027-.17-.042-.255-.031-.17-.049-.255a.383.383,0,0,0-.018-.085c-.025-.112-.051-.223-.08-.337s-.047-.181-.074-.27a.38.38,0,0,0-.036-.118c-.013-.038-.038-.13-.058-.194l-.04-.125c-.018-.056-.036-.112-.056-.168-.033-.1-.069-.2-.1-.3s-.074-.2-.112-.3c-.076-.2-.159-.4-.241-.6-.324-.773-.688-1.534-1.023-2.289a12.654,12.654,0,0,1-.478-1.212l-.042.06a2.571,2.571,0,0,0-.181.322c0,1.757-1.759,3.907-1.759,3.907l-1.771-2.579-1.55,2.382a1.946,1.946,0,0,0-.621,1.1c-.049.156-.1.326-.141.507-.031.121-.06.248-.087.375-.016.065-.029.129-.042.2l-.04.2v.031c-.027.138-.054.281-.078.426s-.054.313-.078.471q-.027.154-.047.308c-.031.2-.058.4-.085.6-.016.116-.031.223-.045.346l-.054.447c.114.366.241.728.373,1.083a1.8,1.8,0,0,1,.145.614,15.256,15.256,0,0,0,8.384,0,.086.086,0,0,1,0-.022,2.659,2.659,0,0,1-.054-.61h0a16.748,16.748,0,0,1,.223-1.708,6.249,6.249,0,0,0,.042-.84v-.1C332.983,458.867,332.981,458.787,332.979,458.706Zm0,0a1.543,1.543,0,0,0-.016-.268c-.016-.089-.013-.167-.025-.252s-.02-.17-.031-.255-.027-.17-.042-.255-.031-.17-.049-.255a.383.383,0,0,0-.018-.085c-.025-.112-.051-.223-.08-.337s-.047-.181-.074-.27a.38.38,0,0,0-.036-.118c-.013-.038-.038-.13-.058-.194l-.04-.125c-.018-.056-.036-.112-.056-.168-.033-.1-.069-.2-.1-.3s-.074-.2-.112-.3c-.076-.2-.159-.4-.241-.6-.324-.773-.688-1.534-1.023-2.289a12.654,12.654,0,0,1-.478-1.212l-.042.06a2.571,2.571,0,0,0-.181.322c0,1.757-1.759,3.907-1.759,3.907l-1.771-2.579-1.55,2.382a1.946,1.946,0,0,0-.621,1.1c-.049.156-.1.326-.141.507-.031.121-.06.248-.087.375-.016.065-.029.129-.042.2l-.04.2v.031c-.027.138-.054.281-.078.426s-.054.313-.078.471q-.027.154-.047.308c-.031.2-.058.4-.085.6-.016.116-.031.223-.045.346l-.054.447c.114.366.241.728.373,1.083a1.8,1.8,0,0,1,.145.614,15.256,15.256,0,0,0,8.384,0,.086.086,0,0,1,0-.022,2.659,2.659,0,0,1-.054-.61h0a16.748,16.748,0,0,1,.223-1.708,6.249,6.249,0,0,0,.042-.84v-.1C332.983,458.867,332.981,458.787,332.979,458.706Zm0,0a1.543,1.543,0,0,0-.016-.268c-.016-.089-.013-.167-.025-.252s-.02-.17-.031-.255-.027-.17-.042-.255-.031-.17-.049-.255a.383.383,0,0,0-.018-.085c-.025-.112-.051-.223-.08-.337s-.047-.181-.074-.27a.38.38,0,0,0-.036-.118c-.013-.038-.038-.13-.058-.194l-.04-.125c-.018-.056-.036-.112-.056-.168-.033-.1-.069-.2-.1-.3s-.074-.2-.112-.3c-.076-.2-.159-.4-.241-.6-.324-.773-.688-1.534-1.023-2.289a12.654,12.654,0,0,1-.478-1.212l-.042.06a2.571,2.571,0,0,0-.181.322c0,1.757-1.759,3.907-1.759,3.907l-1.771-2.579-1.55,2.382a1.946,1.946,0,0,0-.621,1.1c-.049.156-.1.326-.141.507-.031.121-.06.248-.087.375-.016.065-.029.129-.042.2l-.04.2v.031c-.027.138-.054.281-.078.426s-.054.313-.078.471q-.027.154-.047.308c-.031.2-.058.4-.085.6-.016.116-.031.223-.045.346l-.054.447c.114.366.241.728.373,1.083a1.8,1.8,0,0,1,.145.614,15.256,15.256,0,0,0,8.384,0,.086.086,0,0,1,0-.022,2.659,2.659,0,0,1-.054-.61h0a16.748,16.748,0,0,1,.223-1.708,6.249,6.249,0,0,0,.042-.84v-.1C332.983,458.867,332.981,458.787,332.979,458.706Zm0,0a1.543,1.543,0,0,0-.016-.268c-.016-.089-.013-.167-.025-.252s-.02-.17-.031-.255-.027-.17-.042-.255-.031-.17-.049-.255a.383.383,0,0,0-.018-.085c-.025-.112-.051-.223-.08-.337s-.047-.181-.074-.27a.38.38,0,0,0-.036-.118c-.013-.038-.038-.13-.058-.194l-.04-.125c-.018-.056-.036-.112-.056-.168-.033-.1-.069-.2-.1-.3s-.074-.2-.112-.3c-.076-.2-.159-.4-.241-.6-.324-.773-.688-1.534-1.023-2.289a12.654,12.654,0,0,1-.478-1.212l-.042.06a2.571,2.571,0,0,0-.181.322c0,1.757-1.759,3.907-1.759,3.907l-1.771-2.579-1.55,2.382a1.946,1.946,0,0,0-.621,1.1c-.049.156-.1.326-.141.507-.031.121-.06.248-.087.375-.016.065-.029.129-.042.2l-.04.2v.031c-.027.138-.054.281-.078.426s-.054.313-.078.471q-.027.154-.047.308c-.031.2-.058.4-.085.6-.016.116-.031.223-.045.346l-.054.447c.114.366.241.728.373,1.083a1.8,1.8,0,0,1,.145.614,15.256,15.256,0,0,0,8.384,0,.086.086,0,0,1,0-.022,2.659,2.659,0,0,1-.054-.61h0a16.748,16.748,0,0,1,.223-1.708,6.249,6.249,0,0,0,.042-.84v-.1C332.983,458.867,332.981,458.787,332.979,458.706Zm0,0a1.543,1.543,0,0,0-.016-.268c-.016-.089-.013-.167-.025-.252s-.02-.17-.031-.255-.027-.17-.042-.255-.031-.17-.049-.255a.383.383,0,0,0-.018-.085c-.025-.112-.051-.223-.08-.337s-.047-.181-.074-.27a.38.38,0,0,0-.036-.118c-.013-.038-.038-.13-.058-.194l-.04-.125c-.018-.056-.036-.112-.056-.168-.033-.1-.069-.2-.1-.3s-.074-.2-.112-.3c-.076-.2-.159-.4-.241-.6-.324-.773-.688-1.534-1.023-2.289a12.654,12.654,0,0,1-.478-1.212l-.042.06a2.571,2.571,0,0,0-.181.322c0,1.757-1.759,3.907-1.759,3.907l-1.771-2.579-1.55,2.382a1.946,1.946,0,0,0-.621,1.1c-.049.156-.1.326-.141.507-.031.121-.06.248-.087.375-.016.065-.029.129-.042.2l-.04.2v.031c-.027.138-.054.281-.078.426s-.054.313-.078.471q-.027.154-.047.308c-.031.2-.058.4-.085.6-.016.116-.031.223-.045.346l-.054.447c.114.366.241.728.373,1.083a1.8,1.8,0,0,1,.145.614,15.256,15.256,0,0,0,8.384,0,.086.086,0,0,1,0-.022,2.659,2.659,0,0,1-.054-.61h0a16.748,16.748,0,0,1,.223-1.708,6.249,6.249,0,0,0,.042-.84v-.1C332.983,458.867,332.981,458.787,332.979,458.706Zm0,0a1.543,1.543,0,0,0-.016-.268c-.016-.089-.013-.167-.025-.252s-.02-.17-.031-.255-.027-.17-.042-.255-.031-.17-.049-.255a.383.383,0,0,0-.018-.085c-.025-.112-.051-.223-.08-.337s-.047-.181-.074-.27a.38.38,0,0,0-.036-.118c-.013-.038-.038-.13-.058-.194l-.04-.125c-.018-.056-.036-.112-.056-.168-.033-.1-.069-.2-.1-.3s-.074-.2-.112-.3c-.076-.2-.159-.4-.241-.6-.324-.773-.688-1.534-1.023-2.289a12.654,12.654,0,0,1-.478-1.212l-.042.06a2.571,2.571,0,0,0-.181.322c0,1.757-1.759,3.907-1.759,3.907l-1.771-2.579-1.55,2.382a1.946,1.946,0,0,0-.621,1.1c-.049.156-.1.326-.141.507-.031.121-.06.248-.087.375-.016.065-.029.129-.042.2l-.04.2v.031c-.027.138-.054.281-.078.426s-.054.313-.078.471q-.027.154-.047.308c-.031.2-.058.4-.085.6-.016.116-.031.223-.045.346l-.054.447c.114.366.241.728.373,1.083a1.8,1.8,0,0,1,.145.614,15.256,15.256,0,0,0,8.384,0,.086.086,0,0,1,0-.022,2.659,2.659,0,0,1-.054-.61h0a16.748,16.748,0,0,1,.223-1.708,6.249,6.249,0,0,0,.042-.84v-.1C332.983,458.867,332.981,458.787,332.979,458.706Zm0,0a1.543,1.543,0,0,0-.016-.268c-.016-.089-.013-.167-.025-.252s-.02-.17-.031-.255-.027-.17-.042-.255-.031-.17-.049-.255a.383.383,0,0,0-.018-.085c-.025-.112-.051-.223-.08-.337s-.047-.181-.074-.27a.38.38,0,0,0-.036-.118c-.013-.038-.038-.13-.058-.194l-.04-.125c-.018-.056-.036-.112-.056-.168-.033-.1-.069-.2-.1-.3s-.074-.2-.112-.3c-.076-.2-.159-.4-.241-.6-.324-.773-.688-1.534-1.023-2.289a12.654,12.654,0,0,1-.478-1.212l-.042.06a2.571,2.571,0,0,0-.181.322c0,1.757-1.759,3.907-1.759,3.907l-1.771-2.579-1.55,2.382a1.946,1.946,0,0,0-.621,1.1c-.049.156-.1.326-.141.507-.031.121-.06.248-.087.375-.016.065-.029.129-.042.2l-.04.2v.031c-.027.138-.054.281-.078.426s-.054.313-.078.471q-.027.154-.047.308c-.031.2-.058.4-.085.6-.016.116-.031.223-.045.346l-.054.447c.114.366.241.728.373,1.083a1.8,1.8,0,0,1,.145.614,15.256,15.256,0,0,0,8.384,0,.086.086,0,0,1,0-.022,2.659,2.659,0,0,1-.054-.61h0a16.748,16.748,0,0,1,.223-1.708,6.249,6.249,0,0,0,.042-.84v-.1C332.983,458.867,332.981,458.787,332.979,458.706Zm0,0a1.543,1.543,0,0,0-.016-.268c-.016-.089-.013-.167-.025-.252s-.02-.17-.031-.255-.027-.17-.042-.255-.031-.17-.049-.255a.383.383,0,0,0-.018-.085c-.025-.112-.051-.223-.08-.337s-.047-.181-.074-.27a.38.38,0,0,0-.036-.118c-.013-.038-.038-.13-.058-.194l-.04-.125c-.018-.056-.036-.112-.056-.168-.033-.1-.069-.2-.1-.3s-.074-.2-.112-.3c-.076-.2-.159-.4-.241-.6-.324-.773-.688-1.534-1.023-2.289a12.654,12.654,0,0,1-.478-1.212l-.042.06a2.571,2.571,0,0,0-.181.322c0,1.757-1.759,3.907-1.759,3.907l-1.771-2.579-1.55,2.382a1.946,1.946,0,0,0-.621,1.1c-.049.156-.1.326-.141.507-.031.121-.06.248-.087.375-.016.065-.029.129-.042.2l-.04.2v.031c-.027.138-.054.281-.078.426s-.054.313-.078.471q-.027.154-.047.308c-.031.2-.058.4-.085.6-.016.116-.031.223-.045.346l-.054.447c.114.366.241.728.373,1.083a1.8,1.8,0,0,1,.145.614,15.256,15.256,0,0,0,8.384,0,.086.086,0,0,1,0-.022,2.659,2.659,0,0,1-.054-.61h0a16.748,16.748,0,0,1,.223-1.708,6.249,6.249,0,0,0,.042-.84v-.1C332.983,458.867,332.981,458.787,332.979,458.706Z" transform="translate(-313.411 -432.455)"/>
        <path id="Path_33" data-name="Path 33" class="cls-15" d="M311.457,453.189l-.15-.02a5.434,5.434,0,0,1-.67-.134l-.083-.022c-.545-.154-1.141-.431-1.275-.918a.869.869,0,0,1,.013-.476,4.079,4.079,0,0,1,.3-.768v-.013a1.072,1.072,0,0,1,.056-.1,2.233,2.233,0,0,1,.806-.877l-.268.042-2.269.368-3.517.567s-.625-.125-1.476,2.219a.364.364,0,0,1-.029.087c-.205.574-.422,1.291-.645,2.186-.154.621-.295,1.23-.424,1.822-.038.179-.076.355-.112.529a14.19,14.19,0,0,0,1.3,1.34l.074.069a15.239,15.239,0,0,0,2.974,2.105l.042.022a14.723,14.723,0,0,0,2.1.929l.19.067c.04-.413.085-.871.138-1.34a.382.382,0,0,1,.018-.141l.054-.447c.013-.114.029-.223.045-.346.027-.2.054-.4.085-.6q.02-.154.047-.308c.025-.159.051-.317.078-.471s.051-.288.078-.426v-.031l.04-.2c.013-.067.027-.132.042-.2.027-.127.056-.255.087-.375.045-.181.092-.351.141-.507a1.908,1.908,0,0,1,.621-1.1l1.549-2.382.065-.1.029-.045Z" transform="translate(-298.094 -432.654)"/>
        <path id="Path_34" data-name="Path 34" class="cls-23" d="M310.782,453.209l-1.646,2.527a1.887,1.887,0,0,0-.61,1.069c-.051.165-.1.346-.152.536a26.7,26.7,0,0,0-.5,2.923.346.346,0,0,1-.018.134c-.076.621-.138,1.23-.19,1.768a14.724,14.724,0,0,1-2.1-.929l-.042-.022a15.244,15.244,0,0,1-2.974-2.106l-.074-.069a14.18,14.18,0,0,1-1.3-1.34c-.054-.06-.1-.123-.156-.185.025-.116.049-.223.076-.348.127-.592.268-1.2.422-1.818a21.991,21.991,0,0,1,.759-2.5.682.682,0,0,1,.029-.071c.79-2.034,1.36-1.92,1.36-1.92l3.713-.6,2.344-.38-.074.042a2.379,2.379,0,0,0-.645.688l-.065.109c-.027.042-.051.089-.078.136a3.957,3.957,0,0,0-.308.781.822.822,0,0,0,.054.639,2.126,2.126,0,0,0,1.378.8l.087.022A5.6,5.6,0,0,0,310.782,453.209Z" transform="translate(-297.55 -432.669)"/>
        <path id="Path_35" data-name="Path 35" class="cls-15" d="M378.436,455.741l-.092-1.983c.391-3.126-.391-3.32-.391-3.32l-.929-.447H377l-3.735-1.811-.145-.071-.045-.02h0l-.487-.237h0l-.308-.15-.576-.279-.194-.094v.775c0,.223.02.484.038.788.04.764.114,1.786.246,2.992.074.7.168,1.462.284,2.282.069.484.118.967.15,1.438a25.306,25.306,0,0,1-.147,4.756l.2-.065a15.117,15.117,0,0,0,4.5-2.416l.04-.029a14.9,14.9,0,0,0,1.621-1.471Z" transform="translate(-352.301 -430.689)"/>
        <path id="Path_36" data-name="Path 36" class="cls-23" d="M379.3,455.7l-.092-1.987c.391-3.126-.391-3.32-.391-3.32l-1.116-.54h-.022l-3.747-1.818-.172-.083-.034-.016-.275-.134-.364-.176-.719-.348v.317h0v.393c0,.223.02.516.04.848.038.712.1,1.646.223,2.755.08.761.181,1.608.313,2.519q.1.73.147,1.445a25.274,25.274,0,0,1-.138,4.689,15.12,15.12,0,0,0,4.5-2.416l.04-.029a14.9,14.9,0,0,0,1.621-1.471q.1-.1.188-.2Z" transform="translate(-352.969 -430.65)"/>
        <path id="Path_37" data-name="Path 37" class="cls-15" d="M319.674,391.22a3.248,3.248,0,0,0-.306,1.116c-.239.873-1.186,1.42-1.4,2.3-.127.514.02,1.058-.067,1.581-.159.962-1.038,1.614-1.529,2.456a3.313,3.313,0,0,0-.2,2.88,4.613,4.613,0,0,1,.284.728,2.659,2.659,0,0,1-.069,1.116,3.538,3.538,0,0,0,.045,2.387,2.284,2.284,0,0,0,1.672,1.072,6.5,6.5,0,0,0,2.047-.094,5.924,5.924,0,0,0,2.139-.625l-2.418-5.836a4.872,4.872,0,0,1-.491-1.838,4.039,4.039,0,0,1,.3-1.371,11.879,11.879,0,0,1,2.01-3.472c.351.406.324,1.025.616,1.476a2.329,2.329,0,0,0,1,.743,32.987,32.987,0,0,0,3.526,1.474.462.462,0,0,1,.344.688l-.911,3.76a2.917,2.917,0,0,0,.138,2.456c.516.67,1.679.987,1.686,1.851a2.958,2.958,0,0,0,0,.411c.06.4.54.6.949.618a2.829,2.829,0,0,0,2.838-2.315c.223-1.478-.755-2.84-1.163-4.28-.688-2.423.223-5.265-1.128-7.393-1.094-1.726-3.088-2.195-4.981-2.409C323.266,390.544,320.609,389.985,319.674,391.22Z" transform="translate(-309.131 -386.5)"/>
        <path id="Path_38" data-name="Path 38" class="cls-21" d="M319.674,390.22a3.248,3.248,0,0,0-.306,1.116c-.239.873-1.186,1.42-1.4,2.3-.127.514.02,1.058-.067,1.581-.159.962-1.038,1.614-1.529,2.456a3.313,3.313,0,0,0-.2,2.88,4.613,4.613,0,0,1,.284.728,2.659,2.659,0,0,1-.069,1.116,3.538,3.538,0,0,0,.045,2.387,2.284,2.284,0,0,0,1.672,1.072,6.5,6.5,0,0,0,2.047-.094,5.923,5.923,0,0,0,2.139-.625l-2.418-5.836a4.872,4.872,0,0,1-.491-1.838,4.039,4.039,0,0,1,.3-1.371,11.879,11.879,0,0,1,2.01-3.472c.351.406.324,1.025.616,1.476a2.329,2.329,0,0,0,1,.744,32.981,32.981,0,0,0,3.526,1.474.462.462,0,0,1,.344.688l-.911,3.76a2.917,2.917,0,0,0,.138,2.456c.516.67,1.679.987,1.686,1.851a2.958,2.958,0,0,0,0,.411c.06.4.54.6.949.618a2.829,2.829,0,0,0,2.838-2.315c.223-1.478-.755-2.84-1.163-4.28-.688-2.423.223-5.265-1.128-7.393-1.094-1.726-3.088-2.195-4.981-2.409C323.266,389.544,320.609,388.985,319.674,390.22Z" transform="translate(-309.131 -385.723)"/>
      </g>
      <g id="Group_3" data-name="Group 3" class="cls-10" transform="translate(54.096 131.715)">
        <path id="Path_39" data-name="Path 39" class="cls-17" d="M315.846,628.981a15.111,15.111,0,0,1-3.655,9.88c-.116.136-.237.27-.359.4q-.092.1-.188.2a14.9,14.9,0,0,1-1.621,1.471l-.04.029a15.12,15.12,0,0,1-4.5,2.416l-.2.065c-.125.042-.255.08-.382.116l-.051.016a15.257,15.257,0,0,1-8.384,0h-.022c-.223-.065-.447-.132-.652-.205l-.19-.067a14.734,14.734,0,0,1-2.1-.929l-.042-.022a15.242,15.242,0,0,1-2.974-2.105l-.074-.069a14.165,14.165,0,0,1-1.3-1.34c-.054-.06-.1-.123-.156-.185-.1-.116-.192-.237-.286-.357a15.183,15.183,0,1,1,27.173-9.315Z" transform="translate(-285.48 -613.798)"/>
        <path id="Path_40" data-name="Path 40" class="cls-24" d="M323.866,648.888l-.092-2.01c.391-3.177-.391-3.376-.391-3.376l-1.116-.549-.022-.011L318.5,641.1l-.172-.085-.022-.092s.074-.223-.3-.261a1.36,1.36,0,0,1-.094-.569,2.441,2.441,0,0,1,.614-1.116,4.586,4.586,0,0,0,.735-3.253,7.651,7.651,0,0,0-1.246-3.144l-.072-.1a3.783,3.783,0,0,0,.132-.987c0-2.57-2.6-4.653-5.805-4.653-2.9,0-5.321,1.717-5.74,3.956a2.042,2.042,0,0,0-.176.277c-.589,1.1.322,1.927.351,3.028a3.915,3.915,0,0,1-.893,2.052,2.052,2.052,0,0,0-.288,2.132c.136.21.342.368.464.587.431.761-.286,1.634-.547,2.469a2.362,2.362,0,0,0-.071.3l-1.724.281s-.569-.116-1.36,1.951a.706.706,0,0,0-.029.074,22.635,22.635,0,0,0-.759,2.543q-.231.945-.422,1.847c-.027.118-.051.237-.076.355.051.063.1.127.156.188a14.332,14.332,0,0,0,1.3,1.366l.074.071a15.242,15.242,0,0,0,2.974,2.141l.042.022a14.6,14.6,0,0,0,2.1.944l.19.067c.223.076.433.143.652.21a.82.82,0,0,1,.018.1v-.1a15.017,15.017,0,0,0,8.384,0l.051-.016c.127-.036.257-.076.382-.118l.2-.065a15.055,15.055,0,0,0,4.5-2.456l.04-.029a14.989,14.989,0,0,0,1.621-1.5q.1-.1.188-.2Z" transform="translate(-297.535 -623.92)"/>
        <path id="Path_41" data-name="Path 41" class="cls-23" d="M321.746,647.526a3.758,3.758,0,0,1-.893,2.01,1.989,1.989,0,0,0-.288,2.1c.136.205.342.364.464.578.431.748-.286,1.608-.547,2.429a3.05,3.05,0,0,0,.683,2.78,7.4,7.4,0,0,0,2.394,1.748,21.362,21.362,0,0,0,5.921,2.108,5.669,5.669,0,0,0,3.246-.145,3.452,3.452,0,0,0,1.949-3.8c-.257-1.174-1.116-2.119-1.563-3.229a1.512,1.512,0,0,1-.147-.7,2.361,2.361,0,0,1,.614-1.094,4.465,4.465,0,0,0,.723-3.177,7.458,7.458,0,0,0-1.246-3.095,3.39,3.39,0,0,0-.893-.982,3.92,3.92,0,0,0-1.67-.5c-2.425-.339-4.937-.71-7.382-.835a1.584,1.584,0,0,0-1.721.835C320.808,645.633,321.717,646.443,321.746,647.526Z" transform="translate(-312.576 -637.034)"/>
        <path id="Path_42" data-name="Path 42" class="cls-22" d="M343.087,674.077l-4.6,6.544-4.492-.391s-.147,1.563-1.954-4.1c-1.009-3.168,1.043-2.068,1.447-2.945s1.116-1.652,1.177-2.3a4.06,4.06,0,0,0-.279-2.179l4.883-.585a3.644,3.644,0,0,0-.08,2.039C339.8,672.7,343.087,674.077,343.087,674.077Z" transform="translate(-321.429 -655.991)"/>
        <ellipse id="Ellipse_5" data-name="Ellipse 5" class="cls-23" cx="5.805" cy="4.577" rx="5.805" ry="4.577" transform="translate(8.931 3.352)"/>
        <path id="Path_43" data-name="Path 43" class="cls-15" d="M348.293,670.156a4.881,4.881,0,0,1-4.524.728,4.06,4.06,0,0,0-.279-2.179l4.883-.585A3.644,3.644,0,0,0,348.293,670.156Z" transform="translate(-330.538 -655.991)"/>
        <circle id="Ellipse_6" data-name="Ellipse 6" class="cls-22" cx="4.883" cy="4.883" r="4.883" transform="translate(9.927 5.194)"/>
        <path id="Path_44" data-name="Path 44" class="cls-15" d="M334.416,691.594l-.114-.446-.1-.393-.145-.581-.027-.107-.022-.089s.116-.351-.65-.237l-.143.025c-.121.025-.261.058-.422.1l-.145.045-.192.06h0a4.186,4.186,0,0,0-1.621.978,3.648,3.648,0,0,0-.543.656c-.016.022-.027.042-.04.06a2.118,2.118,0,0,0-.141.259c0,1.759-1.759,3.907-1.759,3.907l-1.717-2.481-.034-.049-.409-.594-.145-.192-.049-.067-.893-1.2-.223-.3-.074-.1-.109-.145-.257-.342-1,.587-1.34.782-.781,5.08v.141l.025.42.163,2.76v.038l-.286,1.143.042.022a14.727,14.727,0,0,0,2.1.929l.19.067c.223.074.433.141.652.205a.8.8,0,0,1,.018.1v-.1a15.257,15.257,0,0,0,8.384,0l.051-.016c.127-.036.257-.074.382-.116l.2-.065a14.939,14.939,0,0,0,1.617-.648l.188-4,.134-2.883v-.165Z" transform="translate(-313.24 -672.767)"/>
        <path id="Path_45" data-name="Path 45" class="cls-23" d="M332.979,699.707a1.543,1.543,0,0,0-.016-.268c-.016-.089-.013-.167-.025-.252s-.02-.17-.031-.255-.027-.17-.042-.255-.031-.17-.049-.255a.382.382,0,0,0-.018-.085c-.025-.112-.051-.223-.08-.337s-.047-.181-.074-.27a.381.381,0,0,0-.036-.118c-.013-.038-.038-.129-.058-.194l-.04-.125c-.018-.056-.036-.112-.056-.167-.033-.1-.069-.2-.1-.3s-.074-.2-.112-.3c-.076-.2-.159-.4-.241-.6-.324-.773-.688-1.534-1.023-2.289a12.657,12.657,0,0,1-.478-1.212l-.042.06a2.574,2.574,0,0,0-.181.322c0,1.757-1.759,3.907-1.759,3.907l-1.771-2.579-1.55,2.382a1.946,1.946,0,0,0-.621,1.1c-.049.156-.1.326-.141.507-.031.12-.06.248-.087.375-.016.065-.029.13-.042.2l-.04.2v.031c-.027.138-.054.281-.078.426s-.054.313-.078.471q-.027.154-.047.308c-.031.2-.058.4-.085.6-.016.116-.031.223-.045.346l-.054.447c.114.366.241.728.373,1.083a1.8,1.8,0,0,1,.145.614,15.255,15.255,0,0,0,8.384,0,.086.086,0,0,1,0-.022,2.659,2.659,0,0,1-.054-.61h0a16.751,16.751,0,0,1,.223-1.708,6.248,6.248,0,0,0,.042-.839v-.1C332.983,699.867,332.981,699.787,332.979,699.707Zm0,0a1.543,1.543,0,0,0-.016-.268c-.016-.089-.013-.167-.025-.252s-.02-.17-.031-.255-.027-.17-.042-.255-.031-.17-.049-.255a.382.382,0,0,0-.018-.085c-.025-.112-.051-.223-.08-.337s-.047-.181-.074-.27a.381.381,0,0,0-.036-.118c-.013-.038-.038-.129-.058-.194l-.04-.125c-.018-.056-.036-.112-.056-.167-.033-.1-.069-.2-.1-.3s-.074-.2-.112-.3c-.076-.2-.159-.4-.241-.6-.324-.773-.688-1.534-1.023-2.289a12.657,12.657,0,0,1-.478-1.212l-.042.06a2.574,2.574,0,0,0-.181.322c0,1.757-1.759,3.907-1.759,3.907l-1.771-2.579-1.55,2.382a1.946,1.946,0,0,0-.621,1.1c-.049.156-.1.326-.141.507-.031.12-.06.248-.087.375-.016.065-.029.13-.042.2l-.04.2v.031c-.027.138-.054.281-.078.426s-.054.313-.078.471q-.027.154-.047.308c-.031.2-.058.4-.085.6-.016.116-.031.223-.045.346l-.054.447c.114.366.241.728.373,1.083a1.8,1.8,0,0,1,.145.614,15.255,15.255,0,0,0,8.384,0,.086.086,0,0,1,0-.022,2.659,2.659,0,0,1-.054-.61h0a16.751,16.751,0,0,1,.223-1.708,6.248,6.248,0,0,0,.042-.839v-.1C332.983,699.867,332.981,699.787,332.979,699.707Zm0,0a1.543,1.543,0,0,0-.016-.268c-.016-.089-.013-.167-.025-.252s-.02-.17-.031-.255-.027-.17-.042-.255-.031-.17-.049-.255a.382.382,0,0,0-.018-.085c-.025-.112-.051-.223-.08-.337s-.047-.181-.074-.27a.381.381,0,0,0-.036-.118c-.013-.038-.038-.129-.058-.194l-.04-.125c-.018-.056-.036-.112-.056-.167-.033-.1-.069-.2-.1-.3s-.074-.2-.112-.3c-.076-.2-.159-.4-.241-.6-.324-.773-.688-1.534-1.023-2.289a12.657,12.657,0,0,1-.478-1.212l-.042.06a2.574,2.574,0,0,0-.181.322c0,1.757-1.759,3.907-1.759,3.907l-1.771-2.579-1.55,2.382a1.946,1.946,0,0,0-.621,1.1c-.049.156-.1.326-.141.507-.031.12-.06.248-.087.375-.016.065-.029.13-.042.2l-.04.2v.031c-.027.138-.054.281-.078.426s-.054.313-.078.471q-.027.154-.047.308c-.031.2-.058.4-.085.6-.016.116-.031.223-.045.346l-.054.447c.114.366.241.728.373,1.083a1.8,1.8,0,0,1,.145.614,15.255,15.255,0,0,0,8.384,0,.086.086,0,0,1,0-.022,2.659,2.659,0,0,1-.054-.61h0a16.751,16.751,0,0,1,.223-1.708,6.248,6.248,0,0,0,.042-.839v-.1C332.983,699.867,332.981,699.787,332.979,699.707Zm2.367-4.191-.8-3.182-.136-.545-.038-.15h0l-.194-.777a.146.146,0,0,0,0-.02h0a.179.179,0,0,0-.016-.1c-.029-.058-.1-.118-.275-.134a1.389,1.389,0,0,0-.2,0h0a3.406,3.406,0,0,0-.574.107c-.092.025-.19.051-.295.085l-.192.06h-.018a4.259,4.259,0,0,0-1.407.781,3.8,3.8,0,0,0-.715.79l-.042.06a2.581,2.581,0,0,0-.181.322c0,1.757-1.759,3.907-1.759,3.907l-1.771-2.579-.1-.145-.018-.025-.257-.377-.194-.259-.051-.067-.915-1.221h0l-.29-.4v-.013l-.1-.136-.192-.255-.67.391-1.675.976-.773,5.026v.054l.022.366.165,2.8v.159l-.252,1.007a14.723,14.723,0,0,0,2.1.929l.19.067c.223.074.433.141.652.206a.787.787,0,0,1,.018.1v-.1a15.257,15.257,0,0,0,8.384,0l.051-.016c.127-.036.257-.074.382-.116l.2-.065a14.952,14.952,0,0,0,1.617-.648l.185-3.992.134-2.851Zm-10.981,7.71a.8.8,0,0,1,.018.1v-.1Zm8.614-3.519a1.543,1.543,0,0,0-.016-.268c-.016-.089-.013-.167-.025-.252s-.02-.17-.031-.255-.027-.17-.042-.255-.031-.17-.049-.255a.382.382,0,0,0-.018-.085c-.025-.112-.051-.223-.08-.337s-.047-.181-.074-.27a.381.381,0,0,0-.036-.118c-.013-.038-.038-.129-.058-.194l-.04-.125c-.018-.056-.036-.112-.056-.167-.033-.1-.069-.2-.1-.3s-.074-.2-.112-.3c-.076-.2-.159-.4-.241-.6-.324-.773-.688-1.534-1.023-2.289a12.657,12.657,0,0,1-.478-1.212l-.042.06a2.574,2.574,0,0,0-.181.322c0,1.757-1.759,3.907-1.759,3.907l-1.771-2.579-1.55,2.382a1.946,1.946,0,0,0-.621,1.1c-.049.156-.1.326-.141.507-.031.12-.06.248-.087.375-.016.065-.029.13-.042.2l-.04.2v.031c-.027.138-.054.281-.078.426s-.054.313-.078.471q-.027.154-.047.308c-.031.2-.058.4-.085.6-.016.116-.031.223-.045.346l-.054.447c.114.366.241.728.373,1.083a1.8,1.8,0,0,1,.145.614,15.255,15.255,0,0,0,8.384,0,.086.086,0,0,1,0-.022,2.659,2.659,0,0,1-.054-.61h0a16.751,16.751,0,0,1,.223-1.708,6.248,6.248,0,0,0,.042-.839v-.1C332.983,699.867,332.981,699.787,332.979,699.707Zm0,0a1.543,1.543,0,0,0-.016-.268c-.016-.089-.013-.167-.025-.252s-.02-.17-.031-.255-.027-.17-.042-.255-.031-.17-.049-.255a.382.382,0,0,0-.018-.085c-.025-.112-.051-.223-.08-.337s-.047-.181-.074-.27a.381.381,0,0,0-.036-.118c-.013-.038-.038-.129-.058-.194l-.04-.125c-.018-.056-.036-.112-.056-.167-.033-.1-.069-.2-.1-.3s-.074-.2-.112-.3c-.076-.2-.159-.4-.241-.6-.324-.773-.688-1.534-1.023-2.289a12.657,12.657,0,0,1-.478-1.212l-.042.06a2.574,2.574,0,0,0-.181.322c0,1.757-1.759,3.907-1.759,3.907l-1.771-2.579-1.55,2.382a1.946,1.946,0,0,0-.621,1.1c-.049.156-.1.326-.141.507-.031.12-.06.248-.087.375-.016.065-.029.13-.042.2l-.04.2v.031c-.027.138-.054.281-.078.426s-.054.313-.078.471q-.027.154-.047.308c-.031.2-.058.4-.085.6-.016.116-.031.223-.045.346l-.054.447c.114.366.241.728.373,1.083a1.8,1.8,0,0,1,.145.614,15.255,15.255,0,0,0,8.384,0,.086.086,0,0,1,0-.022,2.659,2.659,0,0,1-.054-.61h0a16.751,16.751,0,0,1,.223-1.708,6.248,6.248,0,0,0,.042-.839v-.1C332.983,699.867,332.981,699.787,332.979,699.707Zm0,0a1.543,1.543,0,0,0-.016-.268c-.016-.089-.013-.167-.025-.252s-.02-.17-.031-.255-.027-.17-.042-.255-.031-.17-.049-.255a.382.382,0,0,0-.018-.085c-.025-.112-.051-.223-.08-.337s-.047-.181-.074-.27a.381.381,0,0,0-.036-.118c-.013-.038-.038-.129-.058-.194l-.04-.125c-.018-.056-.036-.112-.056-.167-.033-.1-.069-.2-.1-.3s-.074-.2-.112-.3c-.076-.2-.159-.4-.241-.6-.324-.773-.688-1.534-1.023-2.289a12.657,12.657,0,0,1-.478-1.212l-.042.06a2.574,2.574,0,0,0-.181.322c0,1.757-1.759,3.907-1.759,3.907l-1.771-2.579-1.55,2.382a1.946,1.946,0,0,0-.621,1.1c-.049.156-.1.326-.141.507-.031.12-.06.248-.087.375-.016.065-.029.13-.042.2l-.04.2v.031c-.027.138-.054.281-.078.426s-.054.313-.078.471q-.027.154-.047.308c-.031.2-.058.4-.085.6-.016.116-.031.223-.045.346l-.054.447c.114.366.241.728.373,1.083a1.8,1.8,0,0,1,.145.614,15.255,15.255,0,0,0,8.384,0,.086.086,0,0,1,0-.022,2.659,2.659,0,0,1-.054-.61h0a16.751,16.751,0,0,1,.223-1.708,6.248,6.248,0,0,0,.042-.839v-.1C332.983,699.867,332.981,699.787,332.979,699.707Zm0,0a1.543,1.543,0,0,0-.016-.268c-.016-.089-.013-.167-.025-.252s-.02-.17-.031-.255-.027-.17-.042-.255-.031-.17-.049-.255a.382.382,0,0,0-.018-.085c-.025-.112-.051-.223-.08-.337s-.047-.181-.074-.27a.381.381,0,0,0-.036-.118c-.013-.038-.038-.129-.058-.194l-.04-.125c-.018-.056-.036-.112-.056-.167-.033-.1-.069-.2-.1-.3s-.074-.2-.112-.3c-.076-.2-.159-.4-.241-.6-.324-.773-.688-1.534-1.023-2.289a12.657,12.657,0,0,1-.478-1.212l-.042.06a2.574,2.574,0,0,0-.181.322c0,1.757-1.759,3.907-1.759,3.907l-1.771-2.579-1.55,2.382a1.946,1.946,0,0,0-.621,1.1c-.049.156-.1.326-.141.507-.031.12-.06.248-.087.375-.016.065-.029.13-.042.2l-.04.2v.031c-.027.138-.054.281-.078.426s-.054.313-.078.471q-.027.154-.047.308c-.031.2-.058.4-.085.6-.016.116-.031.223-.045.346l-.054.447c.114.366.241.728.373,1.083a1.8,1.8,0,0,1,.145.614,15.255,15.255,0,0,0,8.384,0,.086.086,0,0,1,0-.022,2.659,2.659,0,0,1-.054-.61h0a16.751,16.751,0,0,1,.223-1.708,6.248,6.248,0,0,0,.042-.839v-.1C332.983,699.867,332.981,699.787,332.979,699.707Zm0,0a1.543,1.543,0,0,0-.016-.268c-.016-.089-.013-.167-.025-.252s-.02-.17-.031-.255-.027-.17-.042-.255-.031-.17-.049-.255a.382.382,0,0,0-.018-.085c-.025-.112-.051-.223-.08-.337s-.047-.181-.074-.27a.381.381,0,0,0-.036-.118c-.013-.038-.038-.129-.058-.194l-.04-.125c-.018-.056-.036-.112-.056-.167-.033-.1-.069-.2-.1-.3s-.074-.2-.112-.3c-.076-.2-.159-.4-.241-.6-.324-.773-.688-1.534-1.023-2.289a12.657,12.657,0,0,1-.478-1.212l-.042.06a2.574,2.574,0,0,0-.181.322c0,1.757-1.759,3.907-1.759,3.907l-1.771-2.579-1.55,2.382a1.946,1.946,0,0,0-.621,1.1c-.049.156-.1.326-.141.507-.031.12-.06.248-.087.375-.016.065-.029.13-.042.2l-.04.2v.031c-.027.138-.054.281-.078.426s-.054.313-.078.471q-.027.154-.047.308c-.031.2-.058.4-.085.6-.016.116-.031.223-.045.346l-.054.447c.114.366.241.728.373,1.083a1.8,1.8,0,0,1,.145.614,15.255,15.255,0,0,0,8.384,0,.086.086,0,0,1,0-.022,2.659,2.659,0,0,1-.054-.61h0a16.751,16.751,0,0,1,.223-1.708,6.248,6.248,0,0,0,.042-.839v-.1C332.983,699.867,332.981,699.787,332.979,699.707Zm0,0a1.543,1.543,0,0,0-.016-.268c-.016-.089-.013-.167-.025-.252s-.02-.17-.031-.255-.027-.17-.042-.255-.031-.17-.049-.255a.382.382,0,0,0-.018-.085c-.025-.112-.051-.223-.08-.337s-.047-.181-.074-.27a.381.381,0,0,0-.036-.118c-.013-.038-.038-.129-.058-.194l-.04-.125c-.018-.056-.036-.112-.056-.167-.033-.1-.069-.2-.1-.3s-.074-.2-.112-.3c-.076-.2-.159-.4-.241-.6-.324-.773-.688-1.534-1.023-2.289a12.657,12.657,0,0,1-.478-1.212l-.042.06a2.574,2.574,0,0,0-.181.322c0,1.757-1.759,3.907-1.759,3.907l-1.771-2.579-1.55,2.382a1.946,1.946,0,0,0-.621,1.1c-.049.156-.1.326-.141.507-.031.12-.06.248-.087.375-.016.065-.029.13-.042.2l-.04.2v.031c-.027.138-.054.281-.078.426s-.054.313-.078.471q-.027.154-.047.308c-.031.2-.058.4-.085.6-.016.116-.031.223-.045.346l-.054.447c.114.366.241.728.373,1.083a1.8,1.8,0,0,1,.145.614,15.255,15.255,0,0,0,8.384,0,.086.086,0,0,1,0-.022,2.659,2.659,0,0,1-.054-.61h0a16.751,16.751,0,0,1,.223-1.708,6.248,6.248,0,0,0,.042-.839v-.1C332.983,699.867,332.981,699.787,332.979,699.707Zm0,0a1.543,1.543,0,0,0-.016-.268c-.016-.089-.013-.167-.025-.252s-.02-.17-.031-.255-.027-.17-.042-.255-.031-.17-.049-.255a.382.382,0,0,0-.018-.085c-.025-.112-.051-.223-.08-.337s-.047-.181-.074-.27a.381.381,0,0,0-.036-.118c-.013-.038-.038-.129-.058-.194l-.04-.125c-.018-.056-.036-.112-.056-.167-.033-.1-.069-.2-.1-.3s-.074-.2-.112-.3c-.076-.2-.159-.4-.241-.6-.324-.773-.688-1.534-1.023-2.289a12.657,12.657,0,0,1-.478-1.212l-.042.06a2.574,2.574,0,0,0-.181.322c0,1.757-1.759,3.907-1.759,3.907l-1.771-2.579-1.55,2.382a1.946,1.946,0,0,0-.621,1.1c-.049.156-.1.326-.141.507-.031.12-.06.248-.087.375-.016.065-.029.13-.042.2l-.04.2v.031c-.027.138-.054.281-.078.426s-.054.313-.078.471q-.027.154-.047.308c-.031.2-.058.4-.085.6-.016.116-.031.223-.045.346l-.054.447c.114.366.241.728.373,1.083a1.8,1.8,0,0,1,.145.614,15.255,15.255,0,0,0,8.384,0,.086.086,0,0,1,0-.022,2.659,2.659,0,0,1-.054-.61h0a16.751,16.751,0,0,1,.223-1.708,6.248,6.248,0,0,0,.042-.839v-.1C332.983,699.867,332.981,699.787,332.979,699.707Zm0,0a1.543,1.543,0,0,0-.016-.268c-.016-.089-.013-.167-.025-.252s-.02-.17-.031-.255-.027-.17-.042-.255-.031-.17-.049-.255a.382.382,0,0,0-.018-.085c-.025-.112-.051-.223-.08-.337s-.047-.181-.074-.27a.381.381,0,0,0-.036-.118c-.013-.038-.038-.129-.058-.194l-.04-.125c-.018-.056-.036-.112-.056-.167-.033-.1-.069-.2-.1-.3s-.074-.2-.112-.3c-.076-.2-.159-.4-.241-.6-.324-.773-.688-1.534-1.023-2.289a12.657,12.657,0,0,1-.478-1.212l-.042.06a2.574,2.574,0,0,0-.181.322c0,1.757-1.759,3.907-1.759,3.907l-1.771-2.579-1.55,2.382a1.946,1.946,0,0,0-.621,1.1c-.049.156-.1.326-.141.507-.031.12-.06.248-.087.375-.016.065-.029.13-.042.2l-.04.2v.031c-.027.138-.054.281-.078.426s-.054.313-.078.471q-.027.154-.047.308c-.031.2-.058.4-.085.6-.016.116-.031.223-.045.346l-.054.447c.114.366.241.728.373,1.083a1.8,1.8,0,0,1,.145.614,15.255,15.255,0,0,0,8.384,0,.086.086,0,0,1,0-.022,2.659,2.659,0,0,1-.054-.61h0a16.751,16.751,0,0,1,.223-1.708,6.248,6.248,0,0,0,.042-.839v-.1C332.983,699.867,332.981,699.787,332.979,699.707Z" transform="translate(-313.411 -673.455)"/>
        <path id="Path_46" data-name="Path 46" class="cls-15" d="M311.457,694.189l-.15-.02a5.452,5.452,0,0,1-.67-.134l-.083-.022c-.545-.154-1.141-.431-1.275-.918a.869.869,0,0,1,.013-.476,4.082,4.082,0,0,1,.3-.768v-.013a1.068,1.068,0,0,1,.056-.1,2.233,2.233,0,0,1,.806-.878l-.268.042-2.269.368-3.517.567s-.625-.125-1.476,2.219a.363.363,0,0,1-.029.087c-.205.574-.422,1.291-.645,2.186-.154.621-.295,1.23-.424,1.822-.038.179-.076.355-.112.529a14.194,14.194,0,0,0,1.3,1.34l.074.069a15.244,15.244,0,0,0,2.974,2.105l.042.022a14.719,14.719,0,0,0,2.1.929l.19.067c.04-.413.085-.871.138-1.34a.381.381,0,0,1,.018-.141l.054-.447c.013-.114.029-.223.045-.346.027-.2.054-.4.085-.6q.02-.154.047-.308c.025-.159.051-.317.078-.471s.051-.288.078-.427v-.031l.04-.2c.013-.067.027-.132.042-.2.027-.127.056-.255.087-.375.045-.181.092-.35.141-.507a1.908,1.908,0,0,1,.621-1.1l1.549-2.382.065-.1.029-.045Z" transform="translate(-298.094 -673.654)"/>
        <path id="Path_47" data-name="Path 47" class="cls-25" d="M310.782,694.209l-1.646,2.528a1.888,1.888,0,0,0-.61,1.07c-.051.165-.1.346-.152.536a26.7,26.7,0,0,0-.5,2.923.346.346,0,0,1-.018.134c-.076.621-.138,1.23-.19,1.768a14.706,14.706,0,0,1-2.1-.929l-.042-.022a15.239,15.239,0,0,1-2.974-2.106l-.074-.069a14.187,14.187,0,0,1-1.3-1.34c-.054-.06-.1-.123-.156-.185.025-.116.049-.223.076-.348.127-.592.268-1.2.422-1.818a22,22,0,0,1,.759-2.5.682.682,0,0,1,.029-.071c.79-2.034,1.36-1.92,1.36-1.92l3.713-.6,2.344-.38-.074.042a2.378,2.378,0,0,0-.645.688l-.065.109c-.027.042-.051.089-.078.136a3.957,3.957,0,0,0-.308.781.822.822,0,0,0,.054.639,2.127,2.127,0,0,0,1.378.8l.087.022A5.613,5.613,0,0,0,310.782,694.209Z" transform="translate(-297.55 -673.669)"/>
        <path id="Path_48" data-name="Path 48" class="cls-15" d="M378.436,696.741l-.092-1.983c.391-3.126-.391-3.32-.391-3.32l-.929-.447H377l-3.735-1.811-.145-.071-.045-.02h0l-.487-.237h0l-.308-.15-.576-.279-.194-.094v.775c0,.223.02.484.038.788.04.764.114,1.786.246,2.992.074.7.168,1.462.284,2.282.069.484.118.967.15,1.438a25.3,25.3,0,0,1-.147,4.756l.2-.065a15.116,15.116,0,0,0,4.5-2.416l.04-.029a14.9,14.9,0,0,0,1.621-1.471Z" transform="translate(-352.301 -671.689)"/>
        <path id="Path_49" data-name="Path 49" class="cls-25" d="M379.3,696.7l-.092-1.987c.391-3.126-.391-3.32-.391-3.32l-1.116-.54h-.022l-3.747-1.817-.172-.083-.034-.016-.275-.134-.364-.176-.719-.348v.317h0v.393c0,.223.02.516.04.848.038.712.1,1.646.223,2.755.08.761.181,1.608.313,2.518q.1.73.147,1.445a25.274,25.274,0,0,1-.138,4.689,15.121,15.121,0,0,0,4.5-2.416l.04-.029a14.9,14.9,0,0,0,1.621-1.471q.1-.1.188-.2Z" transform="translate(-352.969 -671.65)"/>
        <path id="Path_50" data-name="Path 50" class="cls-15" d="M333.5,638.377a5.584,5.584,0,0,1,2.09-.223,6.843,6.843,0,0,1,1.6.775,4.133,4.133,0,0,0,1.648.435.969.969,0,0,0,.605-.118.938.938,0,0,0,.27-.92,5.281,5.281,0,0,0-1.34-2.51,4.908,4.908,0,0,0-.84-.851,4.434,4.434,0,0,0-2.856-.648,7.155,7.155,0,0,0-3.271.84c-.67.384-2.206,1.594-1.672,2.469C330.3,638.542,332.627,638.526,333.5,638.377Z" transform="translate(-319.768 -629.729)"/>
        <path id="Path_51" data-name="Path 51" class="cls-23" d="M333.5,637.377a5.583,5.583,0,0,1,2.09-.223,6.838,6.838,0,0,1,1.6.775,4.133,4.133,0,0,0,1.648.435.969.969,0,0,0,.605-.118.938.938,0,0,0,.27-.92,5.282,5.282,0,0,0-1.34-2.51,4.912,4.912,0,0,0-.84-.851,4.434,4.434,0,0,0-2.856-.648,7.155,7.155,0,0,0-3.271.84c-.67.384-2.206,1.594-1.672,2.469C330.3,637.542,332.627,637.526,333.5,637.377Z" transform="translate(-319.768 -628.952)"/>
      </g>
      <path id="Path_52" data-name="Path 52" class="cls-26" d="M619.691,386.894h.033c.049,1.5.261,2.849.67,3.224.974.893,5.01-.893,4.734-1.974-.056-.223-.15-.589-.268-1.052a3.142,3.142,0,0,0,2.391-1.085l.7,2.161.049.154h.054c.462,4.381,1.509,13.477,2.347,14.7,1.116,1.614,2.4,8.61,2.4,8.61l2.4,14.35s.924,8.261,1.478,9.154a1.038,1.038,0,0,0,.607.315,8.794,8.794,0,0,1-1.34,2.733c-1.116,1.255-2.586,3.767-3.878,3.588s-1.661,2.512.739,2.869a19.838,19.838,0,0,0,5.075-.3,1.816,1.816,0,0,0,1.757,1.733c2.4.359,7.386-.717,7.386-.717s4.242-1.786,4.432-3.05a39.925,39.925,0,0,0-.878-6.518c.67-1.074-.045-10.342-.045-10.342l-1.293-17.757s.739-9.864,0-11.66c-.462-1.116-.634-6.252-.7-9.925l.893.058a1.636,1.636,0,0,0,.138-.194l.223.016a2.966,2.966,0,0,0,.185-3.229c-.685-1.467-.556-8.089-.446-11.387h0l.132-1.563a.447.447,0,0,0,.109-.17,16.378,16.378,0,0,0,4.986-1.509,5.059,5.059,0,0,0,1.308-.795c.924-.893.368-6.279-1.478-14.35s-3.508-7.355-3.508-7.355-4.432-.359-6.464-3.05-3.4-2.655-3.4-2.655h0c-.051-.353-.087-.685-.112-1,0-.116-.018-.223-.025-.339a5.9,5.9,0,0,0,1.536-2.329,11.553,11.553,0,0,0,1.324-.578,1.571,1.571,0,0,0,.275-.255,2.257,2.257,0,0,0,.712-1.4,5.747,5.747,0,0,0-.083-1.762,4.269,4.269,0,0,0-2.818-3.867q-2.929-1.538-5.874-3.046a3.243,3.243,0,0,0-1.257-.447,3.35,3.35,0,0,0-2.126,1,9.068,9.068,0,0,0-.726.636,4.071,4.071,0,0,0-.534.574,5.5,5.5,0,0,0-.73,4.106.563.563,0,0,0,.6.5,5.757,5.757,0,0,0-.614,2.59,5.872,5.872,0,0,0,2.726,4.932c0,.125,0,.248.011.366a13.069,13.069,0,0,1-.045,1.373s-4.912,2.655-5.464,3.91-2.586,2.152-2.586,2.152-3.878,1.974-3.878,8.969l-2.032,9.864-.368,18.833s.255-.223.67-.54c-.013.125-.025.255-.036.386a21.255,21.255,0,0,0-.056,2.164ZM644.5,435.638c-.076.288-.187.67-.328,1.116-.063-.371-.125-.737-.188-1.085C644.143,435.653,644.315,435.644,644.5,435.638Z" transform="translate(-490.545 -257.688)"/>
      <path id="Path_53" data-name="Path 53" class="cls-27" d="M680.1,808.654s-.712,3.2-1.786,4.445-2.481,3.735-3.722,3.557-1.6,2.49.712,2.845,7.1-.71,7.1-.71,4.09-1.786,4.267-3.023-1.067-7.647-1.067-7.647Z" transform="translate(-532.854 -633.017)"/>
      <path id="Path_54" data-name="Path 54" class="cls-28" d="M680.1,808.654s-.712,3.2-1.786,4.445-2.481,3.735-3.722,3.557-1.6,2.49.712,2.845,7.1-.71,7.1-.71,4.09-1.786,4.267-3.023-1.067-7.647-1.067-7.647Z" transform="translate(-532.854 -633.017)"/>
      <path id="Path_55" data-name="Path 55" class="cls-27" d="M709.556,815.016s-.712,3.2-1.786,4.445-2.487,3.736-3.727,3.557-1.6,2.49.712,2.844,7.114-.712,7.114-.712,4.09-1.786,4.267-3.023-1.067-7.647-1.067-7.647Z" transform="translate(-555.731 -637.957)"/>
      <path id="Path_56" data-name="Path 56" class="cls-29" d="M659.66,598.67s1.422,15.292,2.49,16.893,2.311,8.536,2.311,8.536l2.311,14.225s.893,8.181,1.422,9.07,7.129.507,7.129.507l-4.1-47.1Z" transform="translate(-522.018 -470.332)"/>
      <path id="Path_57" data-name="Path 57" class="cls-28" d="M659.66,598.67s1.422,15.292,2.49,16.893,2.311,8.536,2.311,8.536l2.311,14.225s.893,8.181,1.422,9.07,7.129.507,7.129.507l-4.1-47.1Z" transform="translate(-522.018 -470.332)"/>
      <path id="Path_58" data-name="Path 58" class="cls-29" d="M646.92,566l.464,1.476,2.512,7.973.049.152h.013c.337.076,7.455,1.713,8.991,2.215a2.17,2.17,0,0,1,.243.092c.712.355,1.6,13.158,1.6,13.158s.534,12.093.893,12.981,1.786,19.2,2.668,18.671,7.29,0,7.29,0c.712-.712,0-10.313,0-10.313l-1.264-17.6s.712-9.779,0-11.559-.712-13.691-.712-13.691l-14.555-2.275-1.407-.223Z" transform="translate(-512.123 -444.957)"/>
      <path id="Path_59" data-name="Path 59" class="cls-30" d="M649,570.872l2.512,7.973.06.156c.337.076,7.455,1.712,8.991,2.215h.154l-3.977-10.543-.114-.3-1.293.083Z" transform="translate(-513.738 -448.351)"/>
      <path id="Path_60" data-name="Path 60" class="cls-15" d="M667.083,406.73s-6.58,7.114-10.67,1.244l-3.912,2.668.712,4.09-2.313,30.94s6.046-.179,10.313,1.244a6.618,6.618,0,0,0,6.935-1.6l-.7-27.2,1.6-8.357Z" transform="translate(-515.214 -321.248)"/>
      <path id="Path_61" data-name="Path 61" class="cls-27" d="M667.083,404.34s-6.58,7.114-10.67,1.244l-3.912,2.668.712,4.09-2.313,30.94s6.046-.179,10.313,1.244a6.618,6.618,0,0,0,6.935-1.6l-.7-27.2,1.6-8.357Z" transform="translate(-515.214 -319.392)"/>
      <g id="TESLA" transform="translate(136.659 115.894)">
        <g id="g8">
          <path id="polyline10" class="cls-31" d="M614.313,522.36v1.121h-.357v-.746h-1.306v.746h-.359v-1.119l2.023,0" transform="translate(-612.239 -521.628)"/>
          <path id="path12" class="cls-31" d="M657.015,543.311h-1.38a.509.509,0,0,1-.375-.371h2.128a.512.512,0,0,1-.375.371" transform="translate(-655.26 -542.94)"/>
        </g>
        <g id="g30" transform="translate(11.905 0.013)">
          <path id="path32" class="cls-31" d="M710.907,543a.516.516,0,0,1-.373.368h-.581l-.029.011v1.465h-.357V543.38l-.034-.011h-.58a.522.522,0,0,1-.373-.368h2.326" transform="translate(-708.58 -543)"/>
        </g>
      </g>
      <path id="Path_62" data-name="Path 62" class="cls-32" d="M632.977,569.2s0,4.624-1.067,6.58-7.29.893-7.29.893l1.244-6.58Z" transform="translate(-494.802 -447.442)"/>
      <path id="Path_63" data-name="Path 63" class="cls-33" d="M625.375,588.061c.938.893,4.825-.893,4.557-1.956-.187-.752-.844-3.445-1.217-4.972l-.259-1.074s-2.277-.712-3.081,0a5.07,5.07,0,0,0-.594,2.512C624.615,584.712,624.783,587.494,625.375,588.061Z" transform="translate(-494.88 -455.631)"/>
      <path id="Path_64" data-name="Path 64" class="cls-33" d="M666,376.68l6.223,4.8s9.246-.534,6.935-4.979a16.577,16.577,0,0,1-1.786-6.283,13.143,13.143,0,0,1,0-2.432s-8.536-7.815-7.469,1.067a20.157,20.157,0,0,1,.147,2.054C670.178,377.575,666,376.68,666,376.68Z" transform="translate(-526.943 -288.532)"/>
      <path id="Path_65" data-name="Path 65" class="cls-15" d="M683.239,368.85a20.139,20.139,0,0,1,.147,2.054,5.828,5.828,0,0,0,3.231.969c1.592,0,2.764-1.55,3.823-2.579-.118-1.476.266-1.512.266-1.512S682.171,359.96,683.239,368.85Z" transform="translate(-540.261 -288.526)"/>
      <circle id="Ellipse_7" data-name="Ellipse 7" class="cls-33" cx="5.868" cy="5.868" r="5.868" transform="translate(140.488 71.257)"/>
      <path id="Path_66" data-name="Path 66" class="cls-15" d="M700.766,394.38s.978.089,2.934,2.755,6.223,3.023,6.223,3.023,1.6-.712,3.378,7.29,2.311,13.336,1.422,14.225-4.445,2.137-6.232,2.137c0,0-.534,11.2.355,13.158a3.031,3.031,0,0,1-.179,3.2l-7.815-.534a18.6,18.6,0,0,1-3.2-9.246c-.534-5.868-2.311-22.585-1.422-24.54s4.8-6.935,4.624-7.469A32.134,32.134,0,0,1,700.766,394.38Z" transform="translate(-550.232 -311.656)"/>
      <path id="Path_67" data-name="Path 67" class="cls-32" d="M702.038,394.14s1.315-.036,3.271,2.632,6.221,3.023,6.221,3.023,1.6-.712,3.378,7.29,2.311,13.336,1.422,14.225-4.445,2.135-6.223,2.135c0,0-.534,11.2.355,13.158a3.031,3.031,0,0,1-.179,3.2l-7.815-.534a18.6,18.6,0,0,1-3.2-9.246c-.534-5.868-2.315-22.582-1.427-24.529s4.8-6.935,4.624-7.469S702.038,394.14,702.038,394.14Z" transform="translate(-551.484 -311.469)"/>
      <path id="Path_68" data-name="Path 68" class="cls-15" d="M625,582.561c.851-.65,2.456-1.661,3.934-1.438l-.259-1.074s-2.277-.712-3.081,0A4.989,4.989,0,0,0,625,582.561Z" transform="translate(-495.097 -455.623)"/>
      <path id="Path_69" data-name="Path 69" class="cls-15" d="M637.917,399.16s-4.535,2.934-5.068,4.18a5.657,5.657,0,0,1-2.49,2.135s-3.733,1.956-3.733,8.891l-1.956,9.78,8.891,12.448s1.067-12.448,1.6-15.471,1.244-8.708,1.244-8.708,2.668-3.378,2.311-4.267S637.917,399.16,637.917,399.16Z" transform="translate(-494.841 -315.368)"/>
      <path id="Path_70" data-name="Path 70" class="cls-32" d="M636.014,398.92s-4.729,2.632-5.26,3.876a5.661,5.661,0,0,1-2.49,2.135s-3.733,1.956-3.733,8.891l-1.956,9.78-.355,18.67s3.2-3.023,5.513-1.6,3.733-4.624,3.733-4.624,1.067-12.448,1.6-15.471,1.244-8.708,1.244-8.708,2.668-3.378,2.311-4.267S636.014,398.92,636.014,398.92Z" transform="translate(-492.938 -315.182)"/>
      <path id="Path_71" data-name="Path 71" class="cls-15" d="M672.761,330.3a5.807,5.807,0,0,1,1.036-1.023,3.174,3.174,0,0,1,2.047-1,3.064,3.064,0,0,1,1.21.433q2.836,1.494,5.656,3.019a5.258,5.258,0,0,1,1.9,1.447,5.577,5.577,0,0,1,.817,2.389,5.854,5.854,0,0,1,.08,1.746,2.19,2.19,0,0,1-.773,1.467c-.507.368-1.2.371-1.625.853a4.754,4.754,0,0,0-.527,1.009c-.174.339-.476.67-.819.61a.86.86,0,0,1-.6-.793,4.814,4.814,0,0,1,.065-1.116,2.643,2.643,0,0,0-.406-1.878c-.268-.339-.652-.545-.911-.893-.621-.84-.337-2.233-1.018-3.021a1.614,1.614,0,0,0-1.563-.447,6.683,6.683,0,0,0-1.563.67,11.609,11.609,0,0,1-2.141.826c-.621.17-1.34.576-1.552-.25A5.506,5.506,0,0,1,672.761,330.3Z" transform="translate(-531.556 -260.313)"/>
      <path id="Path_72" data-name="Path 72" class="cls-34" d="M673.558,329.509a5.8,5.8,0,0,1,1.036-1.023,3.174,3.174,0,0,1,2.047-1,3.063,3.063,0,0,1,1.21.433c1.889,1,3.459.054,5.656,3.019.469.634,1.411.773,1.9,1.447a5.577,5.577,0,0,1,.817,2.389,5.854,5.854,0,0,1,.08,1.746,2.19,2.19,0,0,1-.773,1.467c-.507.368-1.2.371-1.625.853a4.754,4.754,0,0,0-.527,1.009c-.174.339-.476.67-.819.61a.86.86,0,0,1-.6-.793,4.807,4.807,0,0,1,.065-1.116,2.643,2.643,0,0,0-.406-1.878c-.268-.339-.652-.545-.911-.893-.621-.84-.337-2.233-1.018-3.021a1.614,1.614,0,0,0-1.563-.447,6.682,6.682,0,0,0-1.563.67,11.61,11.61,0,0,1-2.141.826c-.621.17-1.34.576-1.552-.25A5.493,5.493,0,0,1,673.558,329.509Z" transform="translate(-532.174 -259.699)"/>
      <path id="Path_73" data-name="Path 73" class="cls-15" d="M736.65,458.09s2.371,6.046.592,8.536l-3.912-.893s3.557,1.067,3.023-1.067S736.65,458.09,736.65,458.09Z" transform="translate(-579.24 -361.141)"/>
      <path id="Path_74" data-name="Path 74" class="cls-15" d="M731.11,522.522s-5.158.355-6.58-.712a13.62,13.62,0,0,0,6.419,2.668Z" transform="translate(-572.404 -410.633)"/>
      <path id="Path_75" data-name="Path 75" class="cls-15" d="M645.8,474s-2.668,8.181-2.49,9.425.534,14.937.534,14.937l.534-.179-.179-14.937Z" transform="translate(-509.312 -373.498)"/>
      <path id="Path_76" data-name="Path 76" class="cls-35" d="M320.774,158.342l-60.955-49.121a3.814,3.814,0,0,0-2.7-1.116h-2.59a33.045,33.045,0,1,0-5.723,5.723v2.588a3.814,3.814,0,0,0,1.116,2.7l60.955,49.121a3.8,3.8,0,0,0,5.39,0l4.492-4.488A3.834,3.834,0,0,0,320.774,158.342ZM228.455,108.1a20.331,20.331,0,1,1,14.394-5.954,20.35,20.35,0,0,1-14.394,5.954Z" transform="translate(-161.441 -47.842)"/>
      <path id="Path_77" data-name="Path 77" class="cls-7" d="M322.774,156.342l-60.955-49.121a3.814,3.814,0,0,0-2.7-1.116h-2.59a33.045,33.045,0,1,0-5.723,5.723v2.588a3.814,3.814,0,0,0,1.116,2.7l60.955,49.121a3.8,3.8,0,0,0,5.39,0l4.492-4.488a3.834,3.834,0,0,0,.016-5.408ZM230.455,106.1a20.331,20.331,0,1,1,14.394-5.954,20.35,20.35,0,0,1-14.394,5.954Z" transform="translate(-162.994 -46.289)"/>
      <path id="Path_78" data-name="Path 78" class="cls-33" d="M711.488,477.043s-8.9-10.2-7.647-3.2c.893,4.979,4.267,7.647,5.868,8.181S711.488,477.043,711.488,477.043Z" transform="translate(-556.241 -371.468)"/>
      <path id="Path_79" data-name="Path 79" class="cls-32" d="M727.658,454.51s.179,6.58,1.067,7.469-.534,1.956-.534,1.956l-3.557-.893s.893,5.868-2.845,5.158c0,0,2.49,2.311,4.979,2.668s2.311-.534,2.311-.534l3.733-4.445Z" transform="translate(-570.276 -358.36)"/>
      <path id="Path_80" data-name="Path 80" class="cls-32" d="M702.29,490.3l3.608-.793-.482-1.663-2.233-.893-2.9,1.34Z" transform="translate(-543.923 -378.23)"/>
      <path id="Path_81" data-name="Path 81" class="cls-17" d="M280.78,146.994a15.112,15.112,0,0,0,3.032,9.105c.2.266.406.522.623.775.116.136.237.27.359.4q.092.1.188.2a14.89,14.89,0,0,0,1.621,1.471l.04.029a15.116,15.116,0,0,0,4.5,2.416l.2.065c.125.042.255.08.382.116l.051.016c.065.018.129.038.2.054a15.117,15.117,0,0,0,3.981.529c.223,0,.458,0,.685-.016a15.014,15.014,0,0,0,3.521-.576h.022c.212-.063.422-.127.63-.2h.022l.19-.067a14.723,14.723,0,0,0,2.1-.929l.042-.022.223-.123a15.145,15.145,0,0,0,2.755-1.983l.074-.069a14.183,14.183,0,0,0,1.3-1.34l.047-.056c.038-.042.074-.085.109-.13.1-.116.192-.237.286-.357a15.183,15.183,0,1,0-27.177-9.313Z" transform="translate(-227.734 -107.715)"/>
      <path id="Path_82" data-name="Path 82" class="cls-36" d="M296.628,163.665s3.293-.279,4.8-2.373c1.471-2.039,2.472-2.063,2.521-2.063h0c.038-.272.065-.531.083-.773v-.034a.446.446,0,0,1-.208.092c-.295.045-.554-.234-.7-.531a4.145,4.145,0,0,0-.447-.88c-.364-.42-.96-.422-1.393-.741a1.916,1.916,0,0,1-.67-1.277,3.511,3.511,0,0,1-.027-.558,6.18,6.18,0,0,1,.094-1.19,4.9,4.9,0,0,1,.7-2.079c.413-.583,1.221-.708,1.623-1.259,1.882-2.581,3.224-1.762,4.843-2.628a2.6,2.6,0,0,1,1.036-.377,2.709,2.709,0,0,1,1.753.869,5.005,5.005,0,0,1,.893.893,4.846,4.846,0,0,1,.706,2.711,4.059,4.059,0,0,1-.1,1.061c-.13.514-.48.48-.864.364a4.64,4.64,0,0,1-1.576,5.823v.234a.4.4,0,0,0,0,.051,10.575,10.575,0,0,0,.036,1.067c.038.02,3.648,2.068,4.057,3.039a4.409,4.409,0,0,0,1.922,1.675,6.007,6.007,0,0,1,2.456,3.7l-.047.056a14.321,14.321,0,0,1-1.3,1.366l-.074.071a15.153,15.153,0,0,1-2.755,2.01c-.071.042-.145.085-.223.125l-.042.022a14.6,14.6,0,0,1-2.1.944l-.19.069h-.022c-.208.074-.418.138-.63.2h-.022a14.785,14.785,0,0,1-3.521.585c-.223.011-.447.016-.685.016a14.881,14.881,0,0,1-3.97-.516c-.067-.016-.132-.036-.2-.054l-.051-.016c-.127-.036-.257-.076-.382-.118l-.2-.065a15.055,15.055,0,0,1-4.5-2.458l-.04-.029a14.989,14.989,0,0,1-1.621-1.5q-.1-.1-.188-.205c-.123-.134-.243-.27-.359-.409-.223-.257-.424-.518-.623-.788C295.615,163.2,296.628,163.665,296.628,163.665Z" transform="translate(-238.328 -119.503)"/>
      <path id="Path_83" data-name="Path 83" class="cls-33" d="M335.714,193.116l4.8-3.7s-3.217.69-3.126-4.452a.4.4,0,0,1,0-.051,13.155,13.155,0,0,1,.112-1.534c.824-6.861-5.763-.824-5.763-.824a9.826,9.826,0,0,1,0,1.826v.049a12.757,12.757,0,0,1-1.371,4.847C328.581,192.7,335.714,193.116,335.714,193.116Z" transform="translate(-266.027 -145.216)"/>
      <path id="Path_84" data-name="Path 84" class="cls-15" d="M338.108,183.423c.815.793,1.313,2.233,2.539,2.233a4.5,4.5,0,0,0,2.494-.748,13.156,13.156,0,0,1,.112-1.534c.824-6.861-5.763-.824-5.763-.824S338.2,182.307,338.108,183.423Z" transform="translate(-271.782 -145.216)"/>
      <circle id="Ellipse_8" data-name="Ellipse 8" class="cls-33" cx="4.528" cy="4.528" r="4.528" transform="translate(64.337 31.161)"/>
      <path id="Path_85" data-name="Path 85" class="cls-15" d="M333,151.73a4.967,4.967,0,0,0-.893-.875,2.708,2.708,0,0,0-1.753-.853,2.623,2.623,0,0,0-1.036.371c-1.619.853-2.961.047-4.843,2.583-.4.543-1.208.67-1.623,1.239a4.75,4.75,0,0,0-.7,2.045,5.015,5.015,0,0,0-.069,1.5,1.874,1.874,0,0,0,.67,1.255c.433.315,1.029.317,1.393.73a4.051,4.051,0,0,1,.447.864c.147.29.406.565.7.522a.723.723,0,0,0,.514-.67,4.117,4.117,0,0,0-.056-.953,2.281,2.281,0,0,1,.348-1.608c.223-.292.558-.467.779-.764.531-.717.29-1.92.873-2.586a1.382,1.382,0,0,1,1.34-.373,5.709,5.709,0,0,1,1.34.576,9.939,9.939,0,0,0,1.833.708c.531.145,1.148.493,1.329-.223A4.719,4.719,0,0,0,333,151.73Z" transform="translate(-259.796 -121.839)"/>
      <path id="Path_86" data-name="Path 86" class="cls-34" d="M333,150.73a4.967,4.967,0,0,0-.893-.875,2.708,2.708,0,0,0-1.753-.853,2.623,2.623,0,0,0-1.036.371c-1.619.853-2.961.047-4.843,2.583-.4.543-1.208.67-1.623,1.239a4.75,4.75,0,0,0-.7,2.045,5.015,5.015,0,0,0-.069,1.5,1.874,1.874,0,0,0,.67,1.255c.433.315,1.029.317,1.393.73a4.052,4.052,0,0,1,.447.864c.147.29.406.565.7.522a.723.723,0,0,0,.514-.67,4.117,4.117,0,0,0-.056-.953,2.281,2.281,0,0,1,.348-1.608c.223-.292.558-.467.779-.764.531-.717.29-1.92.873-2.586a1.382,1.382,0,0,1,1.34-.373,5.709,5.709,0,0,1,1.34.576,9.941,9.941,0,0,0,1.833.708c.531.145,1.148.493,1.329-.223A4.719,4.719,0,0,0,333,150.73Z" transform="translate(-259.796 -121.063)"/>
      <path id="Path_87" data-name="Path 87" class="cls-15" d="M327.078,218.539l-.089,3.427a15.118,15.118,0,0,0,3.981.529c.223,0,.458,0,.685-.016a15.012,15.012,0,0,0,3.521-.576h.022c.212-.063.422-.127.63-.2h.022l.19-.067a14.718,14.718,0,0,0,2.1-.929l.042-.022.223-.123-.346-4.62.551-3.168-3.019-2.056a5.315,5.315,0,0,1-.567.688,3.8,3.8,0,0,1-1.032.764c-2.166,1.067-4.631-.63-5.857-1.679l-.279-.248c-.317-.288-.5-.485-.5-.485l-1.509,2.331Z" transform="translate(-262.741 -168.257)"/>
      <path id="Path_88" data-name="Path 88" class="cls-27" d="M327.078,219.539l-.089,3.427a15.118,15.118,0,0,0,3.981.529c.223,0,.458,0,.685-.016a15.014,15.014,0,0,0,3.521-.576h.022c.212-.063.422-.127.63-.2h.022l.19-.067a14.722,14.722,0,0,0,2.1-.929l.042-.022.223-.123-.346-4.62.551-3.168-3.019-2.056a5.316,5.316,0,0,1-.567.688,3.8,3.8,0,0,1-1.032.764c-2.166,1.067-4.631-.63-5.857-1.679l-.279-.248c-.317-.288-.5-.485-.5-.485l-1.509,2.331Z" transform="translate(-262.741 -169.034)"/>
      <path id="Path_89" data-name="Path 89" class="cls-37" d="M294.36,211.29c.2.266.406.522.623.775.116.136.237.27.359.4q.092.1.188.2a14.9,14.9,0,0,0,1.621,1.471l.04.029a15.117,15.117,0,0,0,4.5,2.416l.2.065c.125.042.255.08.382.116l.051.016c.065.018.129.038.2.054a15.119,15.119,0,0,0,3.981.529c.223,0,.458,0,.685-.016.174-2.849.223-5.135-.049-5.723a9.213,9.213,0,0,0-.551-.987c-1.1-1.773-3.126-4.439-3.016-4.776a3.5,3.5,0,0,0,.092-.5c.118-.88.237-2.49.237-2.49h0c-.049,0-1.049.025-2.521,2.03-1.509,2.059-4.8,2.333-4.8,2.333S295.568,206.786,294.36,211.29Z" transform="translate(-238.282 -162.906)"/>
      <path id="Path_90" data-name="Path 90" class="cls-37" d="M362.569,216.606s.165,1.315.382,2.887h.022l.19-.067a14.721,14.721,0,0,0,2.1-.929l.042-.022.223-.123a15.145,15.145,0,0,0,2.755-1.983l.074-.069a14.193,14.193,0,0,0,1.3-1.34l.047-.056a5.906,5.906,0,0,0-2.456-3.637,4.386,4.386,0,0,1-1.922-1.648c-.413-.96-4.059-2.99-4.059-2.99v.016c0,.172-.058,1.746-.145,3.329-.056,1.029-.125,2.063-.205,2.72a3.174,3.174,0,0,1-.116.63C360.513,214,362.569,216.606,362.569,216.606Z" transform="translate(-289.864 -165.826)"/>
    </g>
    <text id="Anda_Sakit_atau_Masuk_Angin_" data-name="Anda Sakit atau Masuk Angin ?" class="cls-38" transform="translate(187 331)"><tspan x="-145.996" y="0">Anda Sakit atau Masuk Angin ?</tspan></text>
    <text id="Skip" class="cls-39" transform="translate(307 52)"><tspan x="0" y="0">Skip</tspan></text>
  </g>
</svg>
