<svg xmlns="http://www.w3.org/2000/svg" xmlns:xlink="http://www.w3.org/1999/xlink" viewBox="0 0 375 667">
  <defs>
    <style>
      .cls-1 {
        clip-path: url(#clip-iPhone_6_7_8_2);
      }

      .cls-2, .cls-3, .cls-4 {
        fill: #fff;
      }

      .cls-2, .cls-3, .cls-5 {
        font-size: 15px;
      }

      .cls-2, .cls-3, .cls-5, .cls-8, .cls-9 {
        font-family: SegoeUI-Semibold, Segoe UI;
        font-weight: 600;
      }

      .cls-2 {
        text-decoration: underline;
      }

      .cls-5 {
        fill: #1072f9;
      }

      .cls-17, .cls-6 {
        fill: none;
      }

      .cls-6 {
        stroke: #fff;
      }

      .cls-7 {
        fill: #4d97fd;
      }

      .cls-8 {
        fill: #7d8594;
        font-size: 17px;
      }

      .cls-9 {
        fill: #707070;
        opacity: 0.79;
      }

      .cls-18, .cls-9 {
        font-size: 20px;
      }

      .cls-10 {
        fill: #f2f2f2;
      }

      .cls-11 {
        fill: #3f3d56;
      }

      .cls-12 {
        fill: #2f2e41;
      }

      .cls-13 {
        fill: #ffb9b9;
      }

      .cls-14 {
        opacity: 0.1;
      }

      .cls-15 {
        fill: #9f616a;
      }

      .cls-16 {
        fill: #d0cde1;
      }

      .cls-18 {
        fill: #1d233f;
        font-family: SegoeUI-Bold, Segoe UI;
        font-weight: 700;
      }

      .cls-19 {
        stroke: none;
      }

      .cls-20 {
        fill: #006bfd;
      }

      .cls-21 {
        filter: url(#Rectangle_1);
      }

      .cls-22 {
        filter: url(#Rectangle_2);
      }

      .cls-23 {
        filter: url(#Square);
      }
    </style>
    <filter id="Square" x="-23.5" y="-116.18" width="423" height="588.36" filterUnits="userSpaceOnUse">
      <feOffset dy="10" input="SourceAlpha"/>
      <feGaussianBlur stdDeviation="7.5" result="blur"/>
      <feFlood flood-color="#363636" flood-opacity="0.161"/>
      <feComposite operator="in" in2="blur"/>
      <feComposite in="SourceGraphic"/>
    </filter>
    <filter id="Rectangle_2" x="221" y="517" width="114" height="57" filterUnits="userSpaceOnUse">
      <feOffset dy="1" input="SourceAlpha"/>
      <feGaussianBlur stdDeviation="3" result="blur-2"/>
      <feFlood flood-opacity="0.161"/>
      <feComposite operator="in" in2="blur-2"/>
      <feComposite in="SourceGraphic"/>
    </filter>
    <filter id="Rectangle_1" x="40" y="517" width="114" height="57" filterUnits="userSpaceOnUse">
      <feOffset dy="1" input="SourceAlpha"/>
      <feGaussianBlur stdDeviation="3" result="blur-3"/>
      <feFlood flood-opacity="0.161"/>
      <feComposite operator="in" in2="blur-3"/>
      <feComposite in="SourceGraphic"/>
    </filter>
    <clipPath id="clip-iPhone_6_7_8_2">
      <rect width="375" height="667"/>
    </clipPath>
  </defs>
  <g id="iPhone_6_7_8_2" data-name="iPhone 6/7/8 – 2" class="cls-1">
    <rect class="cls-20" width="375" height="667"/>
    <g id="Daftar" transform="translate(22 12)">
      <text id="Click_Here" data-name="Click Here" class="cls-2" transform="translate(228 602)"><tspan x="0" y="0">Click Here</tspan></text>
      <text id="Anda_Adalah_Tukang_Urut_" data-name="Anda Adalah Tukang Urut ?" class="cls-3" transform="translate(35 602)"><tspan x="0" y="0">Anda Adalah Tukang Urut ?</tspan></text>
    </g>
    <g class="cls-23" transform="matrix(1, 0, 0, 1, 0, 0)">
      <path id="Square-2" data-name="Square" class="cls-4" d="M48.016,0H329.984C356.5,0,378,20.2,378,45.12V498.24c0,24.919-21.5,45.12-48.016,45.12H48.016C21.5,543.36,0,523.159,0,498.24V45.12C0,20.2,21.5,0,48.016,0Z" transform="translate(-1 -103.68)"/>
    </g>
    <g id="Regist_Season" data-name="Regist Season" transform="translate(8 9)">
      <g class="cls-22" transform="matrix(1, 0, 0, 1, -8, -9)">
        <rect id="Rectangle_2-2" data-name="Rectangle 2" class="cls-4" width="96" height="39" rx="8" transform="translate(230 525)"/>
      </g>
      <text id="Sign_Up" data-name="Sign Up" class="cls-5" transform="translate(243 541)"><tspan x="0" y="0">Sign Up</tspan></text>
      <g class="cls-21" transform="matrix(1, 0, 0, 1, -8, -9)">
        <g id="Rectangle_1-2" data-name="Rectangle 1" class="cls-6" transform="translate(49 525)">
          <rect class="cls-19" width="96" height="39" rx="8"/>
          <rect class="cls-17" x="0.5" y="0.5" width="95" height="38" rx="7.5"/>
        </g>
      </g>
      <text id="Log_In" data-name="Log In" class="cls-3" transform="translate(68 541)"><tspan x="0" y="0">Log In</tspan></text>
    </g>
    <g id="Indicator" transform="translate(56 -1)">
      <circle id="Ellipse_3" data-name="Ellipse 3" class="cls-7" cx="6" cy="6" r="6" transform="translate(147.5 477)"/>
      <circle id="Ellipse_2" data-name="Ellipse 2" class="cls-4" cx="6" cy="6" r="6" transform="translate(125.75 477)"/>
      <circle id="Ellipse_1" data-name="Ellipse 1" class="cls-7" cx="6" cy="6" r="6" transform="translate(104 477)"/>
    </g>
    <text id="Lorem_Ipsum_is_simply_dummy_text_of_the_printing_and_typesetting_industry" data-name="Lorem Ipsum is simply dummy text of the printing and typesetting industry" class="cls-8" transform="translate(29 355)"><tspan x="13.728" y="18">Lorem Ipsum is simply dummy text of </tspan><tspan x="16.322" y="40">the printing and typesetting industry</tspan></text>
    <text id="Skip" class="cls-9" transform="translate(309 52)"><tspan x="0" y="0">Skip</tspan></text>
    <g id="undraw_referral_4ki4" transform="translate(97 89.643)">
      <path id="Path_91" data-name="Path 91" class="cls-10" d="M619.067,547.218l-58.276.193c-15.461-4.646-28.127-20.781-28.207-44.972a68.52,68.52,0,0,1,.823-10.885l46.939-10.545,36.21-8.134a72.02,72.02,0,0,1,7.438,7.734l-34.625,18.283-16.334,8.625,18.355-6.332,38.1-13.143a92.4,92.4,0,0,1,6.335,11.358l-11.494,11.879,13-8.513.166.392C645.736,522.722,635.511,547.163,619.067,547.218Z" transform="translate(-459.04 -367.742)"/>
      <path id="Path_92" data-name="Path 92" class="cls-10" d="M612.658,425.3c-8.813,2.531-19.647,5.729-30.787,9.053-16.107,4.807-32.85,9.88-45.04,13.588l.008-.043a16.754,16.754,0,0,1,3.092-7.176c9.03-11.741,20.528-19.942,33.325-22.988h0a48.028,48.028,0,0,1,10.984-1.31A50.668,50.668,0,0,1,612.658,425.3Z" transform="translate(-462.207 -325.643)"/>
      <ellipse id="Ellipse_9" data-name="Ellipse 9" class="cls-11" cx="57.967" cy="4.322" rx="57.967" ry="4.322" transform="translate(33.615 176.326)"/>
      <path id="Path_93" data-name="Path 93" class="cls-10" d="M326.254,280.011c0,31.231-18.566,42.135-41.469,42.135s-41.469-10.9-41.469-42.135,41.469-70.962,41.469-70.962S326.254,248.78,326.254,280.011Z" transform="translate(-243.316 -170.992)"/>
      <path id="Path_94" data-name="Path 94" class="cls-11" d="M108.277,258.007l.425-26.137,17.675-32.336-17.609,28.236.191-11.753,12.181-23.395L109.01,212.906h0l.343-21.137L122.4,173.144l-12.99,15.3.215-38.758L108.273,201l.111-2.117-13.262-20.3,13.049,24.363-1.236,23.607-.037-.627L91.61,204.56l15.243,23.577-.155,2.952-.028.044.013.243-3.135,59.892h4.189l.5-30.936,15.205-23.518Z" transform="translate(-68.319 -111.63)"/>
      <path id="Path_95" data-name="Path 95" class="cls-11" d="M524.525,66.768v164.8a7.408,7.408,0,0,1-7.406,7.4h-66.9a7.393,7.393,0,0,1-7.406-7.4V66.768a7.406,7.406,0,0,1,7.407-7.406h10.011v1.284a6.1,6.1,0,0,0,6.1,6.1h34.027a6.048,6.048,0,0,0,3.615-1.19,5.665,5.665,0,0,0,.6-.5,6.08,6.08,0,0,0,1.881-4.406V59.362h10.671A7.4,7.4,0,0,1,524.525,66.768Z" transform="translate(-392.09 -59.362)"/>
      <path id="Path_96" data-name="Path 96" class="cls-7" d="M555.719,282.522c0,4.6-2.731,6.206-6.1,6.208l-.234,0q-.234,0-.464-.021c-3.044-.214-5.41-1.9-5.412-6.178,0-4.426,5.652-10.015,6.076-10.428h0l.024-.024S555.717,277.923,555.719,282.522Z" transform="translate(-467.186 -217.995)"/>
      <path id="Path_97" data-name="Path 97" class="cls-11" d="M559.45,288.025l2.232-3.122-2.237,3.464-.006.358q-.234,0-.464-.021l.238-4.6,0-.036,0-.007.023-.435-2.246-3.471,2.253,3.145.006.092.18-3.476-1.923-3.587,1.947,2.976.186-7.207v0l-.029,5.684,1.911-2.254-1.919,2.744-.049,3.113,1.785-2.988-1.792,3.446-.027,1.731,2.591-4.159-2.6,4.763Z" transform="translate(-477.243 -217.994)"/>
      <path id="Path_98" data-name="Path 98" class="cls-7" d="M304.165,484.7H246.2v19.143l4.853-4.853h53.114Z" transform="translate(-183.604 -361.47)"/>
      <rect id="Rectangle_15" data-name="Rectangle 15" class="cls-4" width="32.611" height="2.644" transform="translate(75.526 126.701)"/>
      <rect id="Rectangle_16" data-name="Rectangle 16" class="cls-4" width="32.611" height="2.644" transform="translate(75.526 130.667)"/>
      <path id="Path_99" data-name="Path 99" class="cls-7" d="M246.2,382.2h57.967v19.143l-4.853-4.853H246.2Z" transform="translate(-183.604 -285.03)"/>
      <rect id="Rectangle_17" data-name="Rectangle 17" class="cls-4" width="32.611" height="2.644" transform="translate(72.475 100.895)"/>
      <rect id="Rectangle_18" data-name="Rectangle 18" class="cls-4" width="32.611" height="2.644" transform="translate(72.475 104.861)"/>
      <path id="Path_100" data-name="Path 100" class="cls-10" d="M480.515,205.808v46.677h62.543V205.808Zm8.059.588a1.007,1.007,0,1,1-1.007,1.007,1.007,1.007,0,0,1,1.007-1.007Zm-6.044,2.015a1.007,1.007,0,1,1,1.007-1.007,1.007,1.007,0,0,1-1.007,1.007Zm2.015-1.007a1.007,1.007,0,1,1,1.007,1.007,1.007,1.007,0,0,1-1.007-1.007Zm34.672,31.985H485.552V214.371h33.664Z" transform="translate(-420.209 -168.575)"/>
      <rect id="Rectangle_19" data-name="Rectangle 19" class="cls-4" width="2.015" height="0.252" transform="translate(119.491 38.072)"/>
      <rect id="Rectangle_20" data-name="Rectangle 20" class="cls-4" width="2.015" height="0.252" transform="translate(119.491 38.828)"/>
      <rect id="Rectangle_21" data-name="Rectangle 21" class="cls-4" width="2.015" height="0.252" transform="translate(119.491 39.583)"/>
      <rect id="Rectangle_22" data-name="Rectangle 22" class="cls-4" width="15.195" height="0.756" transform="translate(104.296 45.376)"/>
      <rect id="Rectangle_23" data-name="Rectangle 23" class="cls-4" width="15.195" height="0.756" transform="translate(104.296 47.978)"/>
      <rect id="Rectangle_24" data-name="Rectangle 24" class="cls-4" width="15.195" height="0.756" transform="translate(104.296 50.581)"/>
      <rect id="Rectangle_25" data-name="Rectangle 25" class="cls-4" width="15.195" height="0.756" transform="translate(104.296 53.183)"/>
      <rect id="Rectangle_26" data-name="Rectangle 26" class="cls-4" width="15.195" height="0.756" transform="translate(104.296 55.786)"/>
      <rect id="Rectangle_27" data-name="Rectangle 27" class="cls-4" width="15.195" height="0.756" transform="translate(104.296 58.388)"/>
      <rect id="Rectangle_28" data-name="Rectangle 28" class="cls-4" width="15.195" height="0.756" transform="translate(104.296 60.991)"/>
      <rect id="Rectangle_29" data-name="Rectangle 29" class="cls-4" width="15.195" height="0.756" transform="translate(104.296 63.593)"/>
      <rect id="Rectangle_30" data-name="Rectangle 30" class="cls-4" width="15.195" height="0.756" transform="translate(104.296 66.196)"/>
      <rect id="Rectangle_31" data-name="Rectangle 31" class="cls-4" width="15.195" height="0.756" transform="translate(104.296 68.798)"/>
      <circle id="Ellipse_10" data-name="Ellipse 10" class="cls-4" cx="1.007" cy="1.007" r="1.007" transform="translate(66.35 71.569)"/>
      <circle id="Ellipse_11" data-name="Ellipse 11" class="cls-4" cx="1.007" cy="1.007" r="1.007" transform="translate(69.792 71.569)"/>
      <circle id="Ellipse_12" data-name="Ellipse 12" class="cls-4" cx="1.007" cy="1.007" r="1.007" transform="translate(73.234 71.569)"/>
      <rect id="Rectangle_32" data-name="Rectangle 32" class="cls-7" width="15.195" height="4.282" transform="translate(104.296 77.529)"/>
      <path id="Path_101" data-name="Path 101" class="cls-12" d="M355,594.882l-.557,19.5L348.5,637.215s1.3,3.9.371,4.827-5.2,2.6-5.2,2.6L347.2,596Z" transform="translate(-318.16 -458.731)"/>
      <path id="Path_102" data-name="Path 102" class="cls-12" d="M335.336,778.758s-2.119,4.661.848,5.085S352.851,785.4,352,783s-11.159-4.661-11.159-4.661Z" transform="translate(-311.394 -595.542)"/>
      <path id="Path_103" data-name="Path 103" class="cls-12" d="M306.431,526.791s2.228,12.069,3.713,14.111-.743,16.9-.743,16.9-3.342,21.352-1.857,24.694,1.114,2.228.928,4.085-.557,3.342,0,5.013a14.682,14.682,0,0,1,.743,2.414c.186.928,0,5.941,0,5.941s7.984,2.785,9.283-1.3c0,0-1.857-2.6-1.3-4.642a24.727,24.727,0,0,0,.928-6.313v-3.9l8.541-31.935,2.042-11.511s-.557-11.7-2.6-12.811S306.431,526.791,306.431,526.791Z" transform="translate(-290.385 -407.907)"/>
      <path id="Path_104" data-name="Path 104" class="cls-12" d="M316.749,809.414s-2.785,6.127,1.114,6.684,21.909,2.042,20.8-1.114-14.668-6.127-14.668-6.127Z" transform="translate(-297.361 -618.304)"/>
      <circle id="Ellipse_13" data-name="Ellipse 13" class="cls-13" cx="7.427" cy="7.427" r="7.427" transform="translate(15.491 50.565)"/>
      <path id="Path_105" data-name="Path 105" class="cls-13" d="M312.932,299.415l.138,9.485,9.105.031s-2.311-7.425-1.276-8.977S312.932,299.415,312.932,299.415Z" transform="translate(-295.233 -238.141)"/>
      <path id="Path_106" data-name="Path 106" class="cls-11" d="M312.4,341.561s-6.5-8.355-11.512-4.827-6.87,11.883-6.87,11.883l1.114,23.394s2.785,3.342,1.114,5.57-2.6,1.671-1.3,3.342,2.785,2.971,2.228,3.528.557.928.557.928l19.681.557s-.557-.743,1.114-2.971-.371-5.2,0-6.313.743.186.928-2.414S312.4,341.561,312.4,341.561Z" transform="translate(-281.126 -265.566)"/>
      <path id="Path_107" data-name="Path 107" class="cls-13" d="M359.011,541.237s.371,4.642,3.156,5.384a2.184,2.184,0,0,0,2.4-1.025,4.56,4.56,0,0,0,.146-5.116l-.688-1.1Z" transform="translate(-329.597 -417.34)"/>
      <path id="Path_108" data-name="Path 108" class="cls-11" d="M290.69,319.432a32.468,32.468,0,0,0,0,4.27,1.776,1.776,0,0,1,0,1.671c-.371.557-.186,2.414.186,2.6s-.743,1.857-.371,2.971a8.054,8.054,0,0,0,.928,1.857c.186.371.485,1.037.485,1.037s5.457-11.62,9.913-8.835a32.292,32.292,0,0,0,7.984,3.713S307.4,315.718,290.69,319.432Z" transform="translate(-278.45 -252.814)"/>
      <path id="Path_109" data-name="Path 109" class="cls-11" d="M305.255,355.217s-5.941.557-5.57,8.355-.557,20.052-.557,20.052,10.212,15.6,11.883,16.71,1.857.928,1.671,1.857-.371,1.671.371,2.414a6.412,6.412,0,0,0,1.485,1.114s5.941-2.042,5.384-3.9-3.156-4.827-3.156-4.827-4.456-7.241-4.642-8.355-.186-.928-.743-1.485-2.042-2.785-2.042-3.9v-3.528l1.557-18.852a5.465,5.465,0,0,0-1.449-4.233A4.728,4.728,0,0,0,305.255,355.217Z" transform="translate(-284.938 -279.965)"/>
      <path id="Path_110" data-name="Path 110" class="cls-12" d="M310.434,248.5a3.026,3.026,0,0,0,2.8-.642,2.29,2.29,0,0,0,.453-2.742,3.617,3.617,0,0,0-2.139-1.36,18.932,18.932,0,0,0-5.623-.858,5.048,5.048,0,0,0-2.636.548c-.385.233-.711.552-1.091.792a13.616,13.616,0,0,1-2.308.894,5.921,5.921,0,0,0-3.375,3.574,7.134,7.134,0,0,0-.328,1.679,9.2,9.2,0,0,0,.8,4.559c1.036,2.259,3.008,4.158,3.286,6.628,1.061-.891,1.372-2.386,2.195-3.5a4.539,4.539,0,0,1,2.478-1.682,1.443,1.443,0,0,0,.75-.335,1.244,1.244,0,0,0,.235-.676l.51-3.669a3.162,3.162,0,0,1,.817-2.053,2.9,2.9,0,0,1,1.217-.528,19.626,19.626,0,0,1,3.176-.518" transform="translate(-282.726 -196.236)"/>
      <path id="Path_111" data-name="Path 111" class="cls-14" d="M302.68,477.514,313.1,491.04S303.505,483.017,302.68,477.514Z" transform="translate(-287.587 -371.202)"/>
      <path id="Path_112" data-name="Path 112" class="cls-14" d="M98.424,359.249l-.1,12.774,6.053,9.08-4.953-10.181Z" transform="translate(-73.327 -267.913)"/>
      <path id="Path_113" data-name="Path 113" class="cls-12" d="M780.6,748.994l-1.206-.9s-.8,4.46.093,5.129,4.232,1.782,4.232,3.119,7.574,3.119,7.8,1.114a4.417,4.417,0,0,0-.668-3.119s-3.564-3.564-4.01-4.232-1.559-2-1.559-2Z" transform="translate(-642.856 -572.993)"/>
      <path id="Path_114" data-name="Path 114" class="cls-12" d="M797.817,526.271s-.033.2-.091.555c-.054.319-.127.769-.216,1.323-.936,5.709-3.664,22.516-3.48,23.071.223.668,1.782,3.119,0,3.787a1.382,1.382,0,0,0-.555.6,12.952,12.952,0,0,0-.942,2.223,97.687,97.687,0,0,0-2.856,11.434c-.287,1.5-.483,2.709-.541,3.341a1.813,1.813,0,0,0-.007.441c.223.891-1.337,4.01-2,4.9s-1.782,1.782-1.559,2.673-5.569,3.341-6.237,1.782a28.411,28.411,0,0,1-.891-2.9c-.223-.445-.445-3.564.668-4.01s.446-8.242,1.559-9.8a21.405,21.405,0,0,0,1.535-4.391c.234-.829.47-1.711.7-2.6.94-3.624,1.773-7.271,1.773-7.271l-.223-26.062,12.252-1.559.314.693.626,1.374Z" transform="translate(-642.252 -405.736)"/>
      <path id="Path_115" data-name="Path 115" class="cls-12" d="M850.639,699.359s1.782-1.782,2.673,0,1.782,8.688,3.341,10.247,3.564,9.356,1.337,9.8-4.678-.668-4.9-2-4.9-8.242-4.9-8.91,3.118-3.119,3.118-3.119Z" transform="translate(-694.405 -536.054)"/>
      <path id="Path_116" data-name="Path 116" class="cls-12" d="M750.058,483.476s2.9,26.063,3.564,28.513,4.232,11.806,5.346,13.365,8.242,14.256,9.133,14.925,2.673,2.45,2.673,2.45,3.341,3.341,3.787,4.01,4.232-1.336,4.455-2.673a13.727,13.727,0,0,0-.446-4.455c-.223-.891.446-2.227-.223-2.9s-4.01-4.01-4.01-5.569-5.792-10.692-8.019-12.7-1.782-5.346-1.782-5.346V499.514l12.252-3.787s-.668-10.692-2.228-10.692S752.508,481.471,750.058,483.476Z" transform="translate(-621.223 -375.192)"/>
      <circle id="Ellipse_14" data-name="Ellipse 14" class="cls-15" cx="7.351" cy="7.351" r="7.351" transform="translate(139.527 56.381)"/>
      <path id="Path_117" data-name="Path 117" class="cls-15" d="M804.935,321.693s-.891,3.341-2,4.232,2.9,4.678,2.9,4.678l7.574.445,1.337-4.232s-2.45-4.9-1.782-8.019S804.935,321.693,804.935,321.693Z" transform="translate(-660.508 -252.169)"/>
      <path id="Path_118" data-name="Path 118" class="cls-11" d="M764.388,347.713s2,.223,2.45.891,3.564,2.673,6.014,2.228,4.01-1.114,4.455-.891,1.337,4.9,1.337,4.9l-2.45,7.128.445,19.6.668,5.346s1.337-1.782-4.01-.668-12.252-.891-14.479-1.114-6.014-.891-6.237-2.228.668-6.237.668-6.237l3.564-14.925,2.227-8.019Z" transform="translate(-623.079 -274.402)"/>
      <path id="Path_119" data-name="Path 119" class="cls-16" d="M753.553,342.357s-1.884-1-2.553-.108-9.133,2.228-9.133,2.9-1.782,18.712-1.337,20.271-.891,3.341-.891,3.341l-1.559,6.683s-4.232,12.7-2.45,13.143a11.6,11.6,0,0,0,4.01,0c.668,0,.446-8.465,2.228-10.692s4.232-7.8,4.678-8.91,6.014-16.484,5.792-18.266S753.553,342.357,753.553,342.357Z" transform="translate(-610.137 -270.051)"/>
      <path id="Path_120" data-name="Path 120" class="cls-16" d="M829.828,347.713s1.782,0,2,.445a24.385,24.385,0,0,0,3.341,4.01c.891.668,4.01,3.564,4.01,4.232s-6.46,5.569-6.46,5.569-2.673,13.143-1.336,17.6,3.341,15.147,2.45,15.816-2.9.891-2.9,0-1.336-10.47-2.45-12.474-4.455-14.7-3.119-18.266S829.828,347.713,829.828,347.713Z" transform="translate(-677.158 -274.402)"/>
      <path id="Path_121" data-name="Path 121" class="cls-15" d="M728.138,434.453s-.223,6.905,2.228,10.47a42.331,42.331,0,0,1,4.01,7.574s4.01-1.114,4.678-2.45,4.9-.223,4.9-.668-5.123-2.673-5.569-3.119-2-.445-2.9-1.337a5.9,5.9,0,0,1-1.114-2.9l-.891-5.792Z" transform="translate(-604.873 -339.089)"/>
      <path id="Path_122" data-name="Path 122" class="cls-12" d="M793.178,272.024a4.237,4.237,0,0,1-1.648-.377,2.207,2.207,0,0,1-.564-3.268,4.228,4.228,0,0,1,.783-.63l1.693-1.152a8.282,8.282,0,0,1,2.389-1.268,7.456,7.456,0,0,1,2.442-.144,16.5,16.5,0,0,1,4.678.851,7.828,7.828,0,0,1,3.79,2.774,8.332,8.332,0,0,1,.664,7.267,24.651,24.651,0,0,1-3.767,6.523l-.767-3.742a1.381,1.381,0,0,0-.434-.9c-.689-.49-1.532.516-2.377.51a1.424,1.424,0,0,1-1.205-.954,5.435,5.435,0,0,1-.267-1.6c-.1-1.146-.5-2.741-1.587-3.373C795.988,271.954,794.315,272.128,793.178,272.024Z" transform="translate(-651.363 -212.824)"/>
      <path id="Path_123" data-name="Path 123" class="cls-14" d="M802.735,533.965s.752,21.762,1.2,22.43,0-22.5,0-22.5Z" transform="translate(-660.508 -413.25)"/>
      <path id="Path_124" data-name="Path 124" class="cls-16" d="M733.46,354.722h-1.782S724.1,364.969,725,365.637s0,2.45,0,2.45l-1.782,3.341s-2.228,2-1.559,2.45a8.14,8.14,0,0,1,1.559,2.228s4.455-.668,5.792,2l2.889-3.647Z" transform="translate(-599.947 -279.629)"/>
      <path id="Path_125" data-name="Path 125" class="cls-15" d="M767.148,394.324a19.621,19.621,0,0,1-10.47-3.341l-5.569-2.45s-4.9-7.574-5.346-6.237.668,4.01.668,4.01-7.3,1.391-6.9,3.521c.083.439,3.777-.626,3.777-.626s-.668,4.232,3.119,4.455,4.9-.668,4.9-.668,16.038,13.365,18.712,9.133S767.148,394.324,767.148,394.324Z" transform="translate(-613.365 -300.074)"/>
      <path id="Path_126" data-name="Path 126" class="cls-16" d="M850.629,378.379l2.45.891v6.683l.891,1.337s-.223,2.673-.891,3.341-2,.445-1.559,2a8.443,8.443,0,0,1,.223,3.119s-4.01,5.123-4.232,4.455-3.341-8.91-3.787-8.91,4.455-12.92,4.455-12.92Z" transform="translate(-691.054 -297.272)"/>
      <path id="Path_127" data-name="Path 127" class="cls-12" d="M751.429,499.75s-2.3-2.228-1.152-2.339,5.161-2.339,5.829-1.225S751.429,499.75,751.429,499.75Z" transform="translate(-621.147 -384.896)"/>
      <path id="Path_128" data-name="Path 128" class="cls-7" d="M409.508,705.937c0,5.712-3.4,7.707-7.585,7.707q-.146,0-.291,0c-.194,0-.386-.013-.576-.026-3.781-.268-6.718-2.365-6.718-7.677,0-5.5,7.026-12.436,7.554-12.949h0l.031-.03S409.508,700.224,409.508,705.937Z" transform="translate(-355.942 -531.871)"/>
      <path id="Path_129" data-name="Path 129" class="cls-11" d="M414.143,712.77l2.774-3.876-2.781,4.3-.007.445c-.194,0-.386-.013-.576-.026l.3-5.715,0-.044.005-.008.028-.54-2.788-4.313,2.8,3.908.007.115.226-4.318-2.387-4.456,2.416,3.7.235-8.952v0l-.039,7.06,2.376-2.8-2.386,3.407-.063,3.866,2.219-3.711-2.228,4.279-.035,2.149,3.221-5.164-3.233,5.914Z" transform="translate(-368.438 -531.871)"/>
    </g>
    <g id="Slide_Kiri" data-name="Slide Kiri" transform="translate(13 13)">
      <rect id="Slide_Kiri-2" data-name="Slide Kiri" class="cls-17" width="190" height="460" rx="39" transform="translate(-10 -33)"/>
    </g>
    <text id="Mencari_Pengobatan_Alternatif_" data-name="Mencari Pengobatan Alternatif ?" class="cls-18" transform="translate(188 334)"><tspan x="-152.285" y="0">Mencari Pengobatan Alternatif ?</tspan></text>
    <rect id="Rectangle_50" data-name="Rectangle 50" class="cls-17" width="188" height="440"/>
  </g>
</svg>
