<svg xmlns="http://www.w3.org/2000/svg" xmlns:xlink="http://www.w3.org/1999/xlink" viewBox="0 0 375 667">
  <defs>
    <style>
      .cls-1 {
        clip-path: url(#clip-iPhone_6_7_8_3);
      }

      .cls-2, .cls-3, .cls-4 {
        fill: #fff;
      }

      .cls-2, .cls-3, .cls-5 {
        font-size: 15px;
      }

      .cls-2, .cls-20, .cls-3, .cls-5, .cls-8 {
        font-family: SegoeUI-Semibold, Segoe UI;
        font-weight: 600;
      }

      .cls-2 {
        text-decoration: underline;
      }

      .cls-5, .cls-6 {
        fill: #1072f9;
      }

      .cls-6 {
        stroke: #fff;
      }

      .cls-7 {
        fill: #4d97fd;
      }

      .cls-8 {
        fill: #7d8594;
        font-size: 17px;
      }

      .cls-9 {
        fill: #2f2e41;
      }

      .cls-10 {
        fill: #a0616a;
      }

      .cls-11 {
        fill: #3f3d56;
      }

      .cls-12 {
        fill: #cfcce0;
      }

      .cls-13 {
        fill: #006bfd;
      }

      .cls-14 {
        opacity: 0.1;
      }

      .cls-15, .cls-18 {
        fill: none;
      }

      .cls-15 {
        stroke: #3f3d56;
        stroke-miterlimit: 10;
        stroke-width: 2px;
      }

      .cls-16 {
        fill: #e6e8ec;
      }

      .cls-17 {
        opacity: 0.2;
      }

      .cls-19 {
        fill: #1d233f;
        font-family: SegoeUI-Bold, Segoe UI;
        font-weight: 700;
      }

      .cls-19, .cls-20 {
        font-size: 20px;
      }

      .cls-20 {
        fill: #707070;
        opacity: 0.79;
      }

      .cls-21 {
        stroke: none;
      }

      .cls-22 {
        filter: url(#Rectangle_1);
      }

      .cls-23 {
        filter: url(#Rectangle_2);
      }

      .cls-24 {
        filter: url(#Square);
      }
    </style>
    <filter id="Square" x="-23.5" y="-115.18" width="423" height="588.36" filterUnits="userSpaceOnUse">
      <feOffset dy="10" input="SourceAlpha"/>
      <feGaussianBlur stdDeviation="7.5" result="blur"/>
      <feFlood flood-color="#363636" flood-opacity="0.161"/>
      <feComposite operator="in" in2="blur"/>
      <feComposite in="SourceGraphic"/>
    </filter>
    <filter id="Rectangle_2" x="221" y="518" width="114" height="57" filterUnits="userSpaceOnUse">
      <feOffset dy="1" input="SourceAlpha"/>
      <feGaussianBlur stdDeviation="3" result="blur-2"/>
      <feFlood flood-opacity="0.161"/>
      <feComposite operator="in" in2="blur-2"/>
      <feComposite in="SourceGraphic"/>
    </filter>
    <filter id="Rectangle_1" x="40" y="518" width="114" height="57" filterUnits="userSpaceOnUse">
      <feOffset dy="1" input="SourceAlpha"/>
      <feGaussianBlur stdDeviation="3" result="blur-3"/>
      <feFlood flood-opacity="0.161"/>
      <feComposite operator="in" in2="blur-3"/>
      <feComposite in="SourceGraphic"/>
    </filter>
    <clipPath id="clip-iPhone_6_7_8_3">
      <rect width="375" height="667"/>
    </clipPath>
  </defs>
  <g id="iPhone_6_7_8_3" data-name="iPhone 6/7/8 – 3" class="cls-1">
    <rect class="cls-13" width="375" height="667"/>
    <g id="Daftar" transform="translate(23 11)">
      <text id="Click_Here" data-name="Click Here" class="cls-2" transform="translate(228 602)"><tspan x="0" y="0">Click Here</tspan></text>
      <text id="Anda_Adalah_Tukang_Urut_" data-name="Anda Adalah Tukang Urut ?" class="cls-3" transform="translate(33 602)"><tspan x="0" y="0">Anda Adalah Tukang Urut ?</tspan></text>
    </g>
    <g class="cls-24" transform="matrix(1, 0, 0, 1, 0, 0)">
      <path id="Square-2" data-name="Square" class="cls-4" d="M48.016,0H329.984C356.5,0,378,20.2,378,45.12V498.24c0,24.919-21.5,45.12-48.016,45.12H48.016C21.5,543.36,0,523.159,0,498.24V45.12C0,20.2,21.5,0,48.016,0Z" transform="translate(-1 -102.68)"/>
    </g>
    <g id="Regist_Season" data-name="Regist Season" transform="translate(8 10)">
      <g class="cls-23" transform="matrix(1, 0, 0, 1, -8, -10)">
        <rect id="Rectangle_2-2" data-name="Rectangle 2" class="cls-4" width="96" height="39" rx="8" transform="translate(230 526)"/>
      </g>
      <text id="Sign_Up" data-name="Sign Up" class="cls-5" transform="translate(243 541)"><tspan x="0" y="0">Sign Up</tspan></text>
      <g class="cls-22" transform="matrix(1, 0, 0, 1, -8, -10)">
        <g id="Rectangle_1-2" data-name="Rectangle 1" class="cls-6" transform="translate(49 526)">
          <rect class="cls-21" width="96" height="39" rx="8"/>
          <rect class="cls-18" x="0.5" y="0.5" width="95" height="38" rx="7.5"/>
        </g>
      </g>
      <text id="Log_In" data-name="Log In" class="cls-3" transform="translate(68 541)"><tspan x="0" y="0">Log In</tspan></text>
    </g>
    <g id="Indicator" transform="translate(56)">
      <circle id="Ellipse_3" data-name="Ellipse 3" class="cls-4" cx="6" cy="6" r="6" transform="translate(147.5 477)"/>
      <circle id="Ellipse_2" data-name="Ellipse 2" class="cls-7" cx="6" cy="6" r="6" transform="translate(125.75 477)"/>
      <circle id="Ellipse_1" data-name="Ellipse 1" class="cls-7" cx="6" cy="6" r="6" transform="translate(104 477)"/>
    </g>
    <text id="Lorem_Ipsum_is_simply_dummy_text_of_the_printing_and_typesetting_industry" data-name="Lorem Ipsum is simply dummy text of the printing and typesetting industry" class="cls-8" transform="translate(29 356)"><tspan x="13.728" y="18">Lorem Ipsum is simply dummy text of </tspan><tspan x="16.322" y="40">the printing and typesetting industry</tspan></text>
    <g id="undraw_share_online_r87b" transform="translate(64.862 96)">
      <path id="Path_130" data-name="Path 130" class="cls-9" d="M328.761,195.382A10.379,10.379,0,0,1,317,205.674a.843.843,0,0,1-.145-.022,9.369,9.369,0,0,1-1.115-.227c-.243-.06-.481-.134-.716-.216a10.385,10.385,0,1,1,12.418-14.9A10.043,10.043,0,0,1,328.2,192a10.155,10.155,0,0,1,.465,1.957,9.366,9.366,0,0,1,.093,1.079C328.759,195.153,328.761,195.265,328.761,195.382Z" transform="translate(-258.716 -155.617)"/>
      <path id="Path_131" data-name="Path 131" class="cls-10" d="M146.461,416.5l-8.1,3.293s-14.69-4.306-11.9,0,12.664,2.786,12.664,2.786l12.411-2.786Z" transform="translate(-122.892 -328.485)"/>
      <path id="Path_132" data-name="Path 132" class="cls-10" d="M375.488,582.007l.76,13.677s0,15.45,1.013,21.022,2.786,15.2,2.786,15.2l4.812-.507s-.507-10.891,0-13.677,0-20.262,0-20.262l.76-15.957Z" transform="translate(-309.115 -451.694)"/>
      <path id="Path_133" data-name="Path 133" class="cls-10" d="M457.488,561.806l4.306,14.69s2.786,16.717,6.585,24.315l2.28,7.345,6.332-1.013-2.533-10.385-3.8-20.769L467.873,557.5Z" transform="translate(-370.346 -433.772)"/>
      <path id="Path_134" data-name="Path 134" class="cls-9" d="M395.567,765.3s-3.8-.507-6.079,1.266c0,0,.76,13.677,1.773,13.93s7.852,1.773,8.1,0-2.026-5.572-2.026-5.572Z" transform="translate(-319.569 -588.892)"/>
      <path id="Path_135" data-name="Path 135" class="cls-9" d="M502.786,749.513s1.266,3.8.76,4.306-2.533,6.332-1.266,7.092,7.6,3.8,8.358,6.079,11.651,2.533,10.638.507-7.6-7.852-7.6-7.852L510.131,748.5Z" transform="translate(-403.487 -576.396)"/>
      <circle id="Ellipse_15" data-name="Ellipse 15" class="cls-10" cx="7.852" cy="7.852" r="7.852" transform="translate(55.229 35.586)"/>
      <path id="Path_136" data-name="Path 136" class="cls-10" d="M328.787,251.681l-3.8,10.891,12.917,2.026s-2.28-10.385-.76-12.917S328.787,251.681,328.787,251.681Z" transform="translate(-271.405 -204.571)"/>
      <path id="Path_137" data-name="Path 137" class="cls-9" d="M348.479,346.364c-.464,8.576-14.076,9.516-16.385,9.614a.411.411,0,0,1-.415-.306l-2.654-10.046a.411.411,0,0,0-.809.1V355.7a.415.415,0,0,1-.269.387c-15.966,5.976-22.469-3.139-23.213-4.29a.407.407,0,0,1-.063-.251l2.69-36.437.086-1.168c-.061-.03-.122-.063-.185-.1-5.168-3-12.375-24.153-13.375-27.153a.41.41,0,0,1,.223-.5l6.391-2.84a.411.411,0,0,0,.173-.145l2.389-3.522a.41.41,0,0,1,.657-.03,44.883,44.883,0,0,0,3.535,3.478.409.409,0,0,0,.431.073l5.945-2.457a.411.411,0,0,1,.177-.031l7.938.383a4.869,4.869,0,0,1,4.511,3.772l4.985,21.673a.4.4,0,0,0,.044.112l.19.328c.241.415.669,1.165,1.236,2.176C336.945,316.667,348.9,338.646,348.479,346.364Z" transform="translate(-248.167 -226.182)"/>
      <path id="Path_138" data-name="Path 138" class="cls-9" d="M226.823,307.266,224.8,306s-4.559,2.786-4.559,5.319-6.079,12.411-6.079,12.411l-13.171,10.385,7.092,5.825,23.555-16.97Z" transform="translate(-178.812 -245.972)"/>
      <rect id="Rectangle_33" data-name="Rectangle 33" class="cls-11" width="217.967" height="0.507" transform="translate(28.508 192.493)"/>
      <circle id="Ellipse_16" data-name="Ellipse 16" class="cls-9" cx="3.617" cy="3.617" r="3.617" transform="translate(47.869 26.909)"/>
      <path id="Path_139" data-name="Path 139" class="cls-9" d="M297.677,176.817a3.616,3.616,0,0,1,3.272-3.6c-.113-.011-.228-.017-.344-.017a3.617,3.617,0,0,0,0,7.234c.116,0,.231-.007.344-.017A3.616,3.616,0,0,1,297.677,176.817Z" transform="translate(-250.497 -146.808)"/>
      <path id="Path_140" data-name="Path 140" class="cls-9" d="M328.772,203l1.5.546c.465-.292,1.5-.869,1.543-.892a33.449,33.449,0,0,0-1.535-4.836,31.912,31.912,0,0,0-6.289-1.665,13.211,13.211,0,0,0-7.314.878,8.182,8.182,0,0,0-4.658,5.488c-.255,1.19-.209,2.509-.924,3.494a2.826,2.826,0,0,1-.5.526,12.046,12.046,0,0,0,3.863,5.428,11.915,11.915,0,0,0,3.425,1.906l.172.06c0-.011,0-.026,0-.037-.009-.083-.014-.166-.023-.249-.043-.478-.089-.95-.132-1.428a3.679,3.679,0,0,1,.109-1.668,1.246,1.246,0,0,1,1.3-.841c.552.117.833.961.366,1.276a1.8,1.8,0,0,0,2.095-.112,6.275,6.275,0,0,0,1.431-1.723c1.664-2.491,4.082-3.63,6.578-5.288Z" transform="translate(-260.658 -163.833)"/>
      <path id="Path_141" data-name="Path 141" class="cls-12" d="M346.857,396.133l.086-1.168c-.061-.03-.122-.063-.185-.1,5.215-1.287,19.335-4.848,24.214-6.864.241.415.669,1.165,1.236,2.176C366.066,391.533,352.122,394.656,346.857,396.133Z" transform="translate(-287.662 -307.203)"/>
      <rect id="Rectangle_34" data-name="Rectangle 34" class="cls-11" width="58.761" height="28.621" transform="matrix(0.994, 0.112, -0.112, 0.994, 3.21, 93.298)"/>
      <path id="Path_142" data-name="Path 142" class="cls-4" d="M224.788,490.988c.891,5.823,5.732,9.913,5.732,9.913s3.4-5.351,2.5-11.173-5.732-9.913-5.732-9.913S223.9,485.165,224.788,490.988Z" transform="translate(-196.473 -375.763)"/>
      <path id="Path_143" data-name="Path 143" class="cls-13" d="M205.2,503.6c3.734,4.556,3.538,10.89,3.538,10.89s-6.249-1.053-9.983-5.609-3.538-10.89-3.538-10.89S201.466,499.043,205.2,503.6Z" transform="translate(-174.502 -389.336)"/>
      <path id="Path_144" data-name="Path 144" class="cls-14" d="M276.082,269l3.039,11.4-5.572,8.612,2.533-8.612Z" transform="translate(-204.263 -200.867)"/>
      <path id="Path_145" data-name="Path 145" class="cls-12" d="M324.086,276s-2.786,4.052-2.28,4.559,6.332,1.52,6.332,1.52v-1.52Z" transform="translate(-268.984 -223.571)"/>
      <path id="Path_146" data-name="Path 146" class="cls-12" d="M353.32,276s2.786,4.052,2.28,4.559-8.612,1.52-8.612,1.52v-1.52Z" transform="translate(-287.833 -223.571)"/>
      <circle id="Ellipse_17" data-name="Ellipse 17" class="cls-12" cx="1.52" cy="1.52" r="1.52" transform="translate(78.404 115.496)"/>
      <circle id="Ellipse_18" data-name="Ellipse 18" class="cls-12" cx="1.52" cy="1.52" r="1.52" transform="translate(76.631 109.671)"/>
      <circle id="Ellipse_19" data-name="Ellipse 19" class="cls-12" cx="1.52" cy="1.52" r="1.52" transform="translate(75.111 103.845)"/>
      <circle id="Ellipse_20" data-name="Ellipse 20" class="cls-12" cx="1.52" cy="1.52" r="1.52" transform="translate(73.592 97.766)"/>
      <circle id="Ellipse_21" data-name="Ellipse 21" class="cls-12" cx="1.52" cy="1.52" r="1.52" transform="translate(71.565 91.941)"/>
      <path id="Path_147" data-name="Path 147" class="cls-10" d="M353.851,419.5l-8.358,7.092s-9.118,7.852-5.066,9.878,8.865-8.1,8.865-8.1l11.144-8.105Z" transform="translate(-282.159 -330.725)"/>
      <path id="Path_148" data-name="Path 148" class="cls-9" d="M391.807,289.028h0a4.44,4.44,0,0,1,4.743,1.63,12.329,12.329,0,0,1,1.589,2.676c.76,2.026,2.28,31.66,2.28,31.66l-13.93-2.026,5.319-10.384Z" transform="translate(-317.329 -233.18)"/>
      <path id="Path_149" data-name="Path 149" class="cls-15" d="M584.313,382.331" transform="translate(-465.048 -302.97)"/>
      <path id="Path_150" data-name="Path 150" class="cls-15" d="M584.313,472.472" transform="translate(-465.048 -370.28)"/>
      <rect id="Rectangle_35" data-name="Rectangle 35" class="cls-11" width="0.507" height="13.067" transform="translate(119.011 102.192)"/>
      <path id="Path_151" data-name="Path 151" class="cls-11" d="M666.381,668.05H595.414a12.116,12.116,0,0,1-12.1-12.1V613.524h.507v42.422a11.609,11.609,0,0,0,11.594,11.6h70.967a11.61,11.61,0,0,0,11.6-11.6V612.917h.507v43.029A12.117,12.117,0,0,1,666.381,668.05Z" transform="translate(-464.302 -475.153)"/>
      <rect id="Rectangle_36" data-name="Rectangle 36" class="cls-11" width="0.507" height="12.762" transform="translate(213.676 102.228)"/>
      <path id="Path_152" data-name="Path 152" class="cls-15" d="M958.067,472.614" transform="translate(-744.138 -370.386)"/>
      <path id="Path_153" data-name="Path 153" class="cls-15" d="M958.067,382.472" transform="translate(-744.138 -303.076)"/>
      <path id="Path_154" data-name="Path 154" class="cls-11" d="M678.485,148.4h-.507V135.964h.794a.507.507,0,0,0,.507-.507v-21.8a.507.507,0,0,0-.507-.507h-.794V81.1a11.609,11.609,0,0,0-11.6-11.594H595.414A11.607,11.607,0,0,0,583.82,81.1v67.26h-.507V81.1a12.114,12.114,0,0,1,12.1-12.1h70.967a12.116,12.116,0,0,1,12.1,12.1v31.541h.288a1.015,1.015,0,0,1,1.013,1.013v21.8a1.015,1.015,0,0,1-1.013,1.013h-.288Z" transform="translate(-464.302 -69)"/>
      <rect id="Rectangle_37" data-name="Rectangle 37" class="cls-16" width="13.219" height="2.684" rx="1.342" transform="translate(157.639 6.33)"/>
      <circle id="Ellipse_22" data-name="Ellipse 22" class="cls-16" cx="1.523" cy="1.523" r="1.523" transform="translate(172.857 6.15)"/>
      <path id="Path_155" data-name="Path 155" class="cls-16" d="M691.05,103.861V271.192a7.519,7.519,0,0,1-7.519,7.515H615.6a7.505,7.505,0,0,1-7.519-7.515V103.861a7.518,7.518,0,0,1,7.519-7.519h10.167v1.3a6.191,6.191,0,0,0,6.191,6.191h34.549a6.191,6.191,0,0,0,6.191-6.191v-1.3h10.835A7.516,7.516,0,0,1,691.05,103.861Z" transform="translate(-482.796 -89.417)"/>
      <rect id="Rectangle_38" data-name="Rectangle 38" class="cls-17" width="58.761" height="28.621" transform="translate(137.165 147.916)"/>
      <path id="Path_156" data-name="Path 156" class="cls-11" d="M671.3,404.7H568.059V381.32H671.3Zm-102.636-.607H670.7V381.927H568.666Z" transform="translate(-452.911 -302.215)"/>
      <rect id="Rectangle_39" data-name="Rectangle 39" class="cls-13" width="11.539" height="11.539" transform="translate(123.346 87)"/>
      <path id="Path_157" data-name="Path 157" class="cls-11" d="M604.183,416.245H592.037V404.1h12.146Zm-11.539-.607h10.932V404.706H592.644Z" transform="translate(-470.816 -319.225)"/>
      <rect id="Rectangle_40" data-name="Rectangle 40" class="cls-11" width="54.051" height="0.607" transform="translate(152.498 87.303)"/>
      <rect id="Rectangle_41" data-name="Rectangle 41" class="cls-11" width="54.051" height="0.607" transform="translate(152.498 91.554)"/>
      <rect id="Rectangle_42" data-name="Rectangle 42" class="cls-11" width="54.051" height="0.607" transform="translate(152.498 95.806)"/>
      <path id="Path_158" data-name="Path 158" class="cls-11" d="M671.3,546.381H568.059V523H671.3Zm-102.636-.607H670.7V523.606H568.666Z" transform="translate(-452.911 -408.01)"/>
      <rect id="Rectangle_43" data-name="Rectangle 43" class="cls-13" width="11.539" height="11.539" transform="translate(210.193 134.423) rotate(180)"/>
      <path id="Path_159" data-name="Path 159" class="cls-11" d="M915.9,557.924H903.75V545.778H915.9Zm-11.539-.607h10.932V546.385H904.357Z" transform="translate(-703.578 -425.019)"/>
      <rect id="Rectangle_44" data-name="Rectangle 44" class="cls-11" width="54.051" height="0.607" transform="translate(126.99 123.188)"/>
      <rect id="Rectangle_45" data-name="Rectangle 45" class="cls-11" width="54.051" height="0.607" transform="translate(126.99 127.439)"/>
      <rect id="Rectangle_46" data-name="Rectangle 46" class="cls-11" width="54.051" height="0.607" transform="translate(126.99 131.691)"/>
      <rect id="Rectangle_47" data-name="Rectangle 47" class="cls-11" width="54.051" height="0.607" transform="translate(139.63 41.812)"/>
      <rect id="Rectangle_48" data-name="Rectangle 48" class="cls-11" width="54.051" height="0.607" transform="translate(139.63 46.063)"/>
      <rect id="Rectangle_49" data-name="Rectangle 49" class="cls-11" width="54.051" height="0.607" transform="translate(139.63 50.314)"/>
    </g>
    <g id="Slide_Kiri" data-name="Slide Kiri" transform="translate(12 14)">
      <rect id="Slide_Kiri-2" data-name="Slide Kiri" class="cls-18" width="190" height="460" rx="39" transform="translate(-10 -33)"/>
    </g>
    <text id="Temukanlah_Tukang_Urut_Anda_" data-name="Temukanlah Tukang Urut Anda !" class="cls-19" transform="translate(188 335)"><tspan x="-151.421" y="0">Temukanlah Tukang Urut Anda !</tspan></text>
    <text id="Skip" class="cls-20" transform="translate(309 52)"><tspan x="0" y="0">Skip</tspan></text>
    <rect id="Rectangle_51" data-name="Rectangle 51" class="cls-18" width="189" height="441" transform="translate(-1)"/>
  </g>
</svg>
